<?xml version="1.0" standalone="no"?>
<!DOCTYPE svg PUBLIC "-//W3C//DTD SVG 1.1//EN" "http://www.w3.org/Graphics/SVG/1.1/DTD/svg11.dtd" >
<svg xmlns="http://www.w3.org/2000/svg" xmlns:xlink="http://www.w3.org/1999/xlink" version="1.1">
<metadata></metadata>
<defs>
<font id="sentytangregular" horiz-adv-x="1500" >
<font-face units-per-em="2048" ascent="1638" descent="-410" />
<missing-glyph horiz-adv-x="838" />
<glyph unicode="&#xd;" />
<glyph horiz-adv-x="0" />
<glyph horiz-adv-x="0" />
<glyph unicode=" "  horiz-adv-x="838" />
<glyph unicode="&#x09;" horiz-adv-x="838" />
<glyph unicode="&#xa0;" horiz-adv-x="838" />
<glyph unicode="!" horiz-adv-x="540" d="M132 136q0 15 16 31l82 84q15 14 29 14q13 0 31 -16l80 -86q12 -16 12 -29q0 -15 -14 -31l-80 -88q-20 -20 -29 -20q-16 0 -29 14l-88 101q-10 13 -10 26zM189 1364q0 46 21 69t62 23q42 0 62.5 -23t20.5 -69l-80 -1036h-37z" />
<glyph unicode="&#x22;" horiz-adv-x="516" d="M63 1500q0 37 20.5 57t59.5 20t60.5 -19.5t21.5 -56.5q0 -8 -4 -34l-62 -359h-30l-62 359q-4 23 -4 33zM375 1500q0 37 20.5 57t59.5 20t60.5 -19.5t21.5 -56.5q0 -8 -4 -34l-62 -359h-30l-62 359q-4 23 -4 33z" />
<glyph unicode="#" horiz-adv-x="1234" d="M94 472l30 98h271l86 290h-295l29 97h295l140 477h93l-141 -477h242l142 477h92l-141 -477h259l-29 -97h-259l-83 -290h279l-30 -98h-280l-140 -472h-92l139 472h-240l-142 -472h-92l140 472h-273zM488 569h242l86 290h-243z" />
<glyph unicode="$" horiz-adv-x="1181" d="M143 780v13q0 142 250 322q131 76 246 76h36q235 13 325 -187q-64 -43 -245 -112q-9 0 -9 8q10 26 90 85q-106 67 -291 67q-268 -28 -268 -102q-22 -25 -22 -85q0 -110 384 -179q231 -59 335 -170q36 -61 36 -121v-31q0 -137 -246 -308q-109 -54 -201 -54h-40 q-191 0 -319 276q41 43 52 197l88 -151q93 -163 188 -188q48 -13 80 -13h23q123 0 232 67q18 56 18 98q0 240 -541 349q-201 49 -201 143zM500 1310l172 88l21 -1529l-173 -87z" />
<glyph unicode="%" horiz-adv-x="1461" d="M74 1015q0 85 44 162t123 119t162 42t162 -42t123 -119t44 -162q0 -84 -43 -160t-121.5 -119t-164.5 -43q-85 0 -163.5 43t-122 119t-43.5 160zM193 1056q0 -26 3 -53q11 -78 47.5 -147t90.5 -106q49 -34 97 -34q6 0 11 1q54 3 98 45.5t62 115.5q11 46 11 94q0 27 -3 55 q-11 79 -48 149.5t-91 105.5q-49 33 -98 33h-9q-52 -3 -96 -44.5t-62 -114.5q-13 -50 -13 -100zM274 73l799 1242h71l-797 -1242h-73zM679 403q0 84 44.5 161t123 119t161.5 42t162 -42t123 -119t44 -161q0 -85 -43 -161.5t-121.5 -119t-164.5 -42.5t-164 42.5t-121.5 119 t-43.5 161.5zM798 442q0 -26 4 -52q11 -78 47 -147.5t90 -106.5q50 -33 99 -33h9q54 3 98 45.5t62 115.5q11 46 11 94q0 28 -3 56q-10 79 -47.5 149t-91.5 106q-49 32 -98 32h-9q-52 -3 -96 -44.5t-62 -114.5q-13 -49 -13 -100z" />
<glyph unicode="&#x26;" horiz-adv-x="1800" d="M461 163q-1 58 26 110q24 45 56 85q54 67 119 124q-27 43 -51 87q-45 80 -70 172t7 182q20 47 56 85q41 48 91 87q34 25 73.5 39.5t81.5 14.5h4q85 0 163 -34q40 -17 73 -46q16 -16 31 -35t20 -42q11 -37 4 -74q-10 -40 -30 -76q-58 -93 -135 -170q-53 -54 -111 -103 q89 -115 202 -208l3 -3q1 0 2 -1q5 8 11 16q13 21 26 43q4 6 7 12q29 46 68 83q28 28 59 52l2 1q5 5 15 11.5t20.5 10.5t15.5 0q4 -16 -7 -29q-65 -109 -142 -210q-12 -15 -25 -30q45 -33 91 -62q77 -49 159 -87q65 -30 132 -54q3 -1 2 -6.5t-4.5 -12t-7.5 -13.5t-7.5 -11 t-3.5 -5q-21 -28 -46 -52q-33 -36 -74 -61q-12 -10 -26 -6q-90 18 -174 56q-96 47 -179 115q-15 12 -30 25q0 -1 -1 -1l-1 -1q-54 -47 -114 -85q-39 -26 -84 -41q-96 -32 -193 1q-46 16 -74 55q-27 42 -30 92zM639 323q8 -59 53 -97q48 -32 106 -39q51 -4 99 9 q-27 25 -52 52q-84 88 -153 189l-26 -20l-12 -10q-2 -3 -3 -6q-14 -38 -12 -78zM677 948q14 -92 59 -174q42 -79 94 -152l6 -8q37 26 73 54q13 11 25 22l15 15q2 2 3 4q8 10 16 21q9 15 17 30q9 20 11 41q1 14 0 28q-6 46 -37 82q-29 33 -68 54q-67 36 -142 44q-36 2 -69 -5 q-4 -27 -3 -56zM742 1010h3h-1h-2zM1487 66z" />
<glyph unicode="'" horiz-adv-x="269" d="M41 1500q0 37 20.5 57t59.5 20t60.5 -19.5t21.5 -56.5q0 -8 -4 -34l-62 -359h-30l-62 359q-4 23 -4 33z" />
<glyph unicode="(" horiz-adv-x="603" d="M196 601q2 277 99.5 530t268.5 442h80q-172 -242 -230 -438q-57 -193 -57 -523v-22q0 -330 57 -522q58 -196 230 -438h-80q-171 189 -268.5 441.5t-99.5 529.5z" />
<glyph unicode=")" horiz-adv-x="600" d="M-12 -370q172 242 230 438q57 192 57 522v22q0 330 -57 523q-58 196 -230 438h80q171 -189 268.5 -442t99.5 -530q-2 -277 -99.5 -529.5t-268.5 -441.5h-80z" />
<glyph unicode="*" horiz-adv-x="561" d="M-22 1333q0 17 6 36q11 35 36 53q17 12 34 12q9 0 18 -3q20 -6 74 -62q47 -49 112 -75q-4 71 -37 130q-37 66 -37 84q0 32 23.5 51.5t62.5 19.5q37 0 61.5 -18t24.5 -47q0 -21 -36 -89q-33 -61 -37 -130q66 25 113 75q51 55 69 61q11 3 21 3q18 0 35 -10q26 -17 38 -53 q6 -19 6 -36q0 -15 -4 -28q-10 -30 -38 -38q-6 -2 -19 -2q-25 0 -76 9q-28 5 -55 5q-41 0 -81 -11q44 -55 105 -83q68 -32 79 -47q13 -18 13 -38q0 -9 -2 -17q-8 -30 -39 -53q-29 -22 -59 -22q-1 0 -1 1q-31 0 -48 23q-12 17 -22 94q-10 67 -47 125q-38 -58 -46 -124 q-9 -75 -20 -90q-19 -25 -49 -27h-5q-28 0 -57 21q-30 21 -39 51q-4 10 -4 20q0 17 11 32q13 17 83 51q61 29 105 82q-41 11 -80 11q-27 0 -53 -5q-54 -11 -78 -11q-9 0 -14 2q-30 9 -41 38q-6 13 -6 29z" />
<glyph unicode="+" horiz-adv-x="971" d="M77 647v140h350v369l1 1h139v-370h349l1 -1v-139h-350v-370h-140v370h-350z" />
<glyph unicode="," horiz-adv-x="462" d="M80 91v42l119 125q44 0 88.5 -65.5t44.5 -151.5q0 -109 -71 -226.5t-139 -117.5v43q73 43 87 190q0 119 -129 161z" />
<glyph unicode="-" horiz-adv-x="656" d="M126 437v83q0 29 41 29h356q41 0 41 -29v-83q0 -28 -40 -28h-358q-40 0 -40 28z" />
<glyph unicode="&#xad;" horiz-adv-x="656" d="M126 437v83q0 29 41 29h356q41 0 41 -29v-83q0 -28 -40 -28h-358q-40 0 -40 28z" />
<glyph unicode="." horiz-adv-x="442" d="M77 136q0 15 16 31l82 84q15 14 29 14q13 0 31 -16l80 -86q12 -16 12 -29q0 -15 -14 -31l-80 -88q-20 -20 -29 -20q-16 0 -29 14l-88 101q-10 13 -10 26z" />
<glyph unicode="/" horiz-adv-x="639" d="M66 -50l541 1484h80l-541 -1484h-80z" />
<glyph unicode="0" horiz-adv-x="863" d="M135 264v64q0 175 128 388v8q-32 10 -32 20q49 104 184 192h12q328 -154 328 -392v-20q0 -212 -252 -444q-95 -77 -152 -80h-24q-115 0 -180 168q-12 51 -12 96zM259 408q0 -188 176 -252h32q57 0 72 40q40 96 40 168v24q0 146 -168 264q-69 44 -96 44q-56 -139 -56 -240 v-48z" />
<glyph unicode="1" horiz-adv-x="863" d="M115 676q37 110 256 228q230 138 380 248h12l4 -8v-12q-88 -223 -156 -520q-32 -174 -56 -412q-23 -73 -184 -192q0 -8 -20 -8h-4q-7 0 -12 20q43 439 140 712q36 101 76 196q-203 -135 -424 -260h-4q-8 0 -8 8z" />
<glyph unicode="2" horiz-adv-x="863" d="M62 636v16q60 103 212 200q105 60 172 60h4q115 0 156 -112q12 -43 12 -72v-28q0 -231 -284 -520h4q372 27 372 56l136 56l4 -8v-4q-22 -75 -156 -172q-174 -108 -284 -108l-292 24l-4 8q0 47 180 188q112 150 112 316q0 125 -112 176l-28 4q-73 0 -192 -88h-8z" />
<glyph unicode="3" horiz-adv-x="863" d="M77 940v8q0 39 120 132q33 13 140 72q36 16 76 16h24q156 0 156 -80q-22 -143 -276 -364h4q119 20 200 20q191 0 252 -172q12 -40 12 -92q0 -172 -268 -368q-96 -59 -256 -100q-65 -12 -84 -12h-24q-6 0 -12 12v16q0 49 140 148q226 42 304 80q8 30 8 56v20 q0 152 -168 224q-62 20 -132 20q-35 0 -152 -8q-20 5 -20 12v8q0 42 248 260q20 49 20 68q0 47 -132 92h-12q-29 0 -160 -68h-8z" />
<glyph unicode="4" horiz-adv-x="863" d="M78 356q14 63 340 492q94 139 120 168q94 104 140 104l4 -8q-40 -205 -84 -664q184 11 184 24l4 -8v-8q-36 -87 -156 -160q-52 0 -52 -28q-16 -145 -48 -180q-80 -88 -112 -88h-4q-8 0 -8 12q0 25 8 272q4 0 4 4q-340 14 -340 68zM210 480q0 -36 184 -36h28q0 84 40 376 q-160 -200 -252 -340z" />
<glyph unicode="5" horiz-adv-x="863" d="M7 -212q72 112 127 112q375 143 375 197q38 78 38 145v15q0 119 -131 179q-33 7 -48 7h-7q-31 0 -142 -22h-22q-11 4 -11 22q63 483 74 499q109 126 149 126q0 -3 4 -3q-12 -70 -12 -90q37 26 53 26h160q115 0 141 -26v-3q0 -41 -127 -142q-38 -7 -137 -7h-108 q-9 0 -37 -186q-12 -36 -12 -67q2 -8 8 -8h4l122 19h38q140 0 186 -153q7 -16 7 -59q0 -190 -257 -406q-117 -85 -290 -141q-55 -19 -141 -41z" />
<glyph unicode="6" horiz-adv-x="863" d="M170 164v24q-41 257 456 756l140 65l-64 -65v-4q0 -7 -192 -216q-132 -168 -168 -252q93 96 124 96h24q106 -38 164 -148q16 -38 24 -92q0 -154 -236 -312q-47 -16 -72 -16h-4q-154 0 -192 124zM298 312q0 -93 112 -136q36 -8 52 -8h36v4q0 93 -120 180l-72 28 q-8 -46 -8 -68z" />
<glyph unicode="7" horiz-adv-x="863" d="M111 848q70 123 164 160q302 44 432 44q44 0 44 -32v-8q-124 -376 -124 -448q-32 -136 -80 -452q0 -33 -96 -112h-16l-4 20q28 432 84 628l56 200v12q-8 0 -8 4q-60 -4 -88 -4h-72q-113 0 -288 -20z" />
<glyph unicode="8" horiz-adv-x="863" d="M149 168v8q0 127 156 312q-92 100 -92 188q0 123 248 312q73 36 112 36h12q93 0 116 -92v-16q0 -95 -160 -252l-56 -60q196 -166 196 -288v-16q0 -105 -216 -260q-84 -40 -136 -40h-16q-124 0 -160 132q-4 15 -4 36zM313 296q0 -88 124 -136l20 -4q37 4 68 12v4 q0 110 -176 272q-36 -55 -36 -120v-28zM361 796q6 -63 68 -132q26 28 108 68q8 18 8 40q0 71 -96 92h-12q-76 0 -76 -52v-16z" />
<glyph unicode="9" horiz-adv-x="863" d="M112 8q0 43 120 124q175 60 240 136q97 140 132 360q-118 -100 -252 -100h-20q-175 0 -208 120l-4 28q0 115 172 304q142 148 264 148q26 32 44 32q128 -127 128 -312l8 -4l-4 -20v-12q0 -427 -364 -696q-78 -68 -244 -112l-8 -4zM244 792q0 -110 172 -128l20 -4 q176 12 176 44v24q0 225 -92 292q-28 8 -48 8h-4q-162 0 -224 -212v-24z" />
<glyph unicode=":" horiz-adv-x="522" d="M130 136q0 15 16 31l82 84q15 14 29 14q13 0 31 -16l80 -86q12 -16 12 -29q0 -15 -14 -31l-80 -88q-20 -20 -29 -20q-16 0 -29 14l-88 101q-10 13 -10 26zM130 829q0 15 16 31l82 84q15 14 29 14q13 0 31 -16l80 -86q12 -16 12 -29q0 -15 -14 -31l-80 -88 q-20 -20 -29 -20q-16 0 -29 14l-88 101q-10 13 -10 26z" />
<glyph unicode=";" horiz-adv-x="542" d="M133 91v42l119 125q44 0 88.5 -65.5t44.5 -151.5q0 -109 -71 -226.5t-139 -117.5v43q73 43 87 190q0 119 -129 161zM143 828q0 15 16 31l82 84q15 14 29 14q13 0 31 -16l80 -86q12 -16 12 -29q0 -15 -14 -31l-80 -88q-20 -20 -29 -20q-16 0 -29 14l-88 101q-10 13 -10 26 z" />
<glyph unicode="&#x3c;" horiz-adv-x="1061" d="M88 674v83l840 484v-167l-625 -359l625 -355v-167z" />
<glyph unicode="=" horiz-adv-x="1121" d="M154 491v140h840v-140h-840zM154 803v140h840v-140h-840z" />
<glyph unicode="&#x3e;" horiz-adv-x="1054" d="M154 193v167l625 355l-625 359v167l840 -484v-83z" />
<glyph unicode="?" horiz-adv-x="641" d="M86 1266v64q128 104 242 104q132 0 212 -68t80 -182q0 -69 -32.5 -140t-124.5 -186q-90 -113 -141.5 -187.5t-51.5 -142.5q0 -63 35 -189h-47q-50 138 -50 211q0 109 116.5 312t116.5 309q0 82 -47 129t-130 47q-84 0 -178 -81zM161 136q0 15 16 31l82 84q15 14 29 14 q13 0 31 -16l80 -86q12 -16 12 -29q0 -15 -14 -31l-80 -88q-20 -20 -29 -20q-16 0 -29 14l-88 101q-10 13 -10 26z" />
<glyph unicode="@" horiz-adv-x="1190" d="M103 553q1 42 12 83q10 34 24 67q29 63 73 117q52 65 116 118t140 86q105 45 219 46q25 0 49 -2q88 -5 166 -44q34 -18 62.5 -44.5t43.5 -62.5q18 -41 15 -86q-3 -38 -19 -74q-39 -80 -105 -140q-40 -40 -88 -71q-33 -22 -72 -32q-17 -4 -40.5 -5t-41.5 7 q-45 -43 -95 -78q-39 -27 -83 -46q-33 -14 -69 -11q-18 2 -34.5 10t-25.5 24q-18 29 -18 62q2 45 21 85.5t48 75.5q34 43 78 78q30 24 66 38q36 13 75 10q35 -3 65 -21q1 0 1 -1q15 -9 26 -23q2 -2 3 -4q10 -11 13 -25q1 -1 1 -3q3 -9 0 -19q0 -2 -1 -4q2 2 5 4q2 2 5 4 q12 10 26 15q1 0 2 1q1 0 2 1h2q4 0 7 -0.5t4 -3.5q2 -4 2 -8t-1 -9t-4.5 -11t-6.5 -11q-1 -1 -1 -2l-4 -6q13 -9 31 -12q35 0 66 12l22 12q7 12 13 24q17 42 15 87q-5 45 -30 82q-23 32 -55 54q-39 27 -85 41q-39 11 -80 17q-147 12 -283 -44q-31 -15 -60 -32 q-10 -8 -20 -15q-2 -4 -5 -8q-13 -21 -24 -43q-19 -46 -25 -96q-4 -45 0 -89q21 -165 135 -284q53 -54 121 -87q68 -30 142 -40q126 -9 242 38q38 18 72 42q72 50 141 103q1 0 1 1q3 2 9 6.5t13 7t10 0.5q3 -10 -4 -18q-11 -18 -24 -33q-17 -19 -36 -36q-57 -46 -116 -90 q-3 -3 -6 -5q-63 -51 -132 -91q-61 -34 -129 -52q-76 -21 -156 -19q-68 3 -134 25q-73 25 -132 75q-49 42 -83 97q-82 131 -77 285zM304 868q2 2 5 4q-3 -2 -5 -4zM307 871q0 1 1 2l2 2q-2 -2 -3 -4zM446 580q4 -33 27 -58q1 0 1 -1q12 -12 27 -18q13 -4 26 -5h-4q-1 1 -3 1 h3q18 -1 35 3q14 4 27 9q17 8 33 18q9 7 19 15v3q0 19 13 36q-1 0 -2 1q-2 6 3 12q2 5 2 11q-10 32 -37 48t-58 20q-48 4 -92 -14q-2 -1 -3 -1q-2 -4 -4 -7q-14 -35 -13 -73zM649 593q1 0 1 1zM871 631q4 4 7 9q-3 -5 -7 -9zM877 640q2 3 5 5h-1q-2 -3 -4 -5zM914 756v1v-1z " />
<glyph unicode="A" horiz-adv-x="862" d="M64 92v4q138 484 304 816q-20 64 -56 64q-4 0 -56 -20h-4v4q66 103 160 148l24 4h12q93 0 144 -440q64 -299 132 -420q32 -72 88 -72q16 0 16 -8q-61 -110 -188 -172h-8q-34 0 -60 112q-48 103 -108 336q-77 -32 -108 -32h-36q-100 0 -100 44h-4q-96 -329 -116 -344 q0 -6 -24 -24h-12zM228 496h4q83 36 120 36h12q26 0 80 -4v4q-32 209 -60 344q-10 -4 -116 -268z" />
<glyph unicode="B" horiz-adv-x="986" d="M125 1020q0 42 124 140l20 4h16q25 0 36 -108q163 128 304 128q112 0 112 -96v-8q0 -127 -228 -352h4q55 20 136 20h20q142 0 216 -112q20 -37 20 -92q0 -135 -240 -352q-132 -104 -224 -104h-24q-68 0 -68 52q9 84 32 84q51 8 84 8q18 0 88 -4q86 0 164 68q68 88 68 176 q0 63 -64 132q-76 56 -148 56h-32q-105 0 -216 -60v-48q-8 -230 -8 -256v-112q-32 -152 -64 -152q-4 -16 -56 -32q-48 0 -48 44v8q0 60 40 420q4 330 8 444q-5 127 -24 128l-36 -32h-4q-8 0 -8 8zM321 1020q4 -40 4 -60v-308q155 92 208 144q92 105 92 200q-15 84 -112 84 q-92 0 -192 -60z" />
<glyph unicode="C" horiz-adv-x="1088" d="M123 285v51q0 331 392 611q95 61 173 61h10q72 0 72 -20q0 -44 -117 -132q-11 0 -11 15h-35q-257 0 -326 -290q-15 -52 -15 -118v-10q0 -181 178 -244q81 -26 148 -26h25q215 0 387 204q32 31 51 31q5 -10 5 -16q-169 -280 -484 -392q-47 -10 -97 -10q-268 0 -346 199 q-10 40 -10 86z" />
<glyph unicode="D" horiz-adv-x="1028" d="M82 100q0 23 156 384q104 220 304 496v4h-4q-20 0 -48 4q-34 0 -280 -40h-20q-21 0 -28 16v12q82 216 100 216h4q8 0 8 -12q-8 -63 -8 -84q7 -16 28 -16h20q232 44 292 44q10 0 60 -4q9 15 32 28h8v-8l-16 -24v-4q69 0 172 -112q68 -110 68 -280q0 -420 -436 -656 q-131 -64 -236 -64h-24q-152 22 -152 100zM190 216l100 -56q50 -16 84 -16q167 0 324 116q108 142 108 372q0 276 -228 340q-182 -252 -324 -580z" />
<glyph unicode="E" horiz-adv-x="1024" d="M123 348q0 244 228 488q153 156 288 156h28q236 -14 236 -36v-4q0 -11 -64 -84q-26 -53 -76 -100h-8v8q0 11 28 64h-4q-22 -8 -124 -8h-132q-129 0 -160 -60q-80 -159 -80 -196h4l36 8q227 -12 276 -12q106 0 300 12l12 -16v-12q-97 -116 -232 -116q-63 0 -408 40 q0 4 -4 4v-36q0 -134 164 -236q110 -44 192 -44h40q118 0 216 108l28 20q8 -1 8 -8q-80 -128 -228 -224q-104 -64 -176 -64h-20q-274 0 -356 268q-8 21 -12 80z" />
<glyph unicode="F" horiz-adv-x="1048" d="M125 0v4q28 54 40 280q48 797 72 928h-8q-63 -44 -80 -44l-4 8q143 112 172 124q8 -13 8 -24q0 -30 -4 -140q109 72 348 72h28q344 -19 344 -32v-12q-49 -69 -112 -96v12l-20 -4h-72q-80 0 -296 56q-38 4 -72 4h-28q-124 -8 -124 -40v-216q-4 -120 -4 -204q71 40 464 40 q0 4 112 4l4 -8q0 -21 -80 -80h-4v8l4 8q-22 -4 -32 -4q-115 0 -372 4q-23 0 -104 -16q-4 -94 -4 -140v-140q0 -227 -172 -352h-4z" />
<glyph unicode="G" horiz-adv-x="1062" d="M86 402v44q0 229 300 456q138 84 204 84q22 12 164 24q140 0 140 -40q-4 -23 -84 -96q-37 -88 -64 -120h-8v8q9 49 64 128l-40 4h-24q-226 0 -424 -108q-80 -85 -80 -248q0 -157 132 -296q90 -64 176 -64h4q187 0 248 116q52 55 52 68q-73 -32 -84 -32h-16q-6 0 -12 12v4 q69 59 200 100l4 -8q-16 -111 -16 -216q0 -54 4 -288q-15 -79 -60 -128q-46 -36 -56 -36q-17 19 -24 36q24 331 40 468v4h-4q-191 -248 -380 -248h-4q-249 0 -344 292q-8 57 -8 80z" />
<glyph unicode="H" horiz-adv-x="1128" d="M160 1212v12q110 136 164 136h4q16 -5 16 -36v-20q-20 -305 -28 -524q185 208 448 208q151 0 208 -184q32 -75 32 -428q0 -174 -232 -360q-21 -16 -36 -16q-4 8 -4 12q76 97 76 120q44 407 44 488v12q0 229 -156 276q-22 4 -36 4h-16q-217 0 -328 -160q0 -45 -8 -364 q4 -72 4 -96q-15 -96 -40 -96q-15 -4 -32 -4q-60 0 -60 76q-8 98 -8 152q0 485 20 772q0 7 -8 24l-20 -4h-4z" />
<glyph unicode="I" horiz-adv-x="500" d="M140 8q48 210 48 792q3 0 16 120q-24 13 -24 44q0 14 140 84h16q6 0 12 -16q-24 -142 -24 -696q-12 -152 -24 -172q12 0 12 -8v-8q-129 -148 -168 -148z" />
<glyph unicode="J" horiz-adv-x="485" d="M-10 -255q152 164 152 276q44 181 44 536q0 58 -12 376q0 81 20 152q-22 -12 -36 -12l-4 8v4q77 80 164 132h4l4 -8v-4q-32 -33 -32 -216v-104q0 -27 4 -48q-4 -21 -4 -48v-32q0 -721 -176 -896q-63 -78 -120 -120h-8v4z" />
<glyph unicode="K" horiz-adv-x="1207" d="M140 1260v24q0 6 96 44l120 88h8l4 -8q-80 -203 -80 -772q119 115 256 292q179 251 204 292q-40 0 -40 12v4q111 88 148 96l4 -8v-4q0 -45 -356 -504q143 -178 384 -412q240 -217 268 -228h4q11 0 24 8q0 -4 4 -4q-116 -132 -184 -132h-20q-49 0 -160 144 q-55 55 -416 516h-4q-48 -48 -116 -104q0 -163 20 -464q-23 -73 -88 -120q-16 -20 -36 -20h-4q-6 0 -16 16q22 1172 56 1172q0 34 28 100h-4q-57 -40 -76 -40h-16q-6 0 -12 12z" />
<glyph unicode="L" horiz-adv-x="1002" d="M6 1031v4q19 44 144 103q51 46 83 70h4q8 -1 8 -8q-29 -169 -29 -306q0 -57 38 -759h4q52 13 181 17q23 0 58 -4q318 4 318 33q14 0 136 78q6 0 12 -12q-1 -16 -124 -116q-213 -265 -268 -421l-12 -8h-8q38 144 255 404v4q-115 -74 -160 -74q-279 4 -355 4 q-66 0 -165 -33q0 4 -4 4q4 172 4 256v512q0 155 37 338q-121 -86 -153 -86h-4z" />
<glyph unicode="M" horiz-adv-x="1515" d="M128 440q0 256 320 496q133 88 228 88q72 -37 72 -96q20 -50 36 -228h4q157 236 320 236q130 0 184 -168q52 -226 84 -604v-40q-8 -51 -112 -124h-4q-14 0 -28 368q-36 321 -76 388q-61 84 -140 84q-145 0 -216 -212q-5 -12 -8 -12q4 -122 4 -180v-112q0 -208 -32 -208 q0 -22 -60 -48h-4q-8 52 -8 140v180q-25 492 -56 492q-21 52 -64 52q-118 -14 -244 -136q-96 -119 -96 -264q0 -224 192 -308q4 0 4 -4v-4q-76 -100 -104 -100q-104 36 -152 124q-44 76 -44 200z" />
<glyph unicode="N" horiz-adv-x="1184" d="M96 968v4q57 92 128 92q66 60 84 60l4 -8q-8 -16 -16 -60q15 8 32 8q117 0 368 -524q50 -92 204 -276l-16 560v28q0 53 4 136q-18 48 -52 48v8q53 94 168 152h12v-4q-32 -215 -32 -312v-92q0 -565 32 -652q0 -32 -120 -128l-20 -8q-48 0 -156 184q-129 185 -260 472 q-88 171 -172 264h-4l-4 -8q0 -32 -4 -232q0 -67 20 -468v-20q-17 -69 -124 -136h-8q0 4 -4 4q4 204 4 300v240q0 283 32 400q-52 -32 -80 -32h-20z" />
<glyph unicode="O" horiz-adv-x="1059" d="M123 332q0 188 180 376l-4 8v8q35 53 196 188q96 56 160 56h4q185 0 248 -192q20 -79 28 -200q0 -336 -340 -544q-76 -32 -136 -32q-260 0 -328 260zM247 444q0 -129 120 -232q91 -64 216 -64q152 17 152 76q36 93 36 192v28q-11 292 -168 352q-36 16 -92 24 q-34 0 -76 -48q-62 -22 -132 -112q-56 -110 -56 -208v-8z" />
<glyph unicode="P" horiz-adv-x="983" d="M112 1080v4q60 96 112 96q86 56 96 56q12 -4 12 -24q0 -57 -8 -200h4q196 176 332 176h24q148 0 224 -152q24 -81 24 -144v-32q0 -151 -232 -316q-119 -84 -316 -84h-60v-4q-12 -357 -12 -480q-21 -66 -92 -116l-8 4q3 24 8 24q0 8 -4 8q-4 172 -4 212q0 200 -4 800 l12 216h-4q-66 -44 -96 -44h-8zM324 536h4q352 28 396 84q72 23 72 92v8q0 141 -56 260q-81 108 -188 108h-12q-110 0 -216 -104v-448z" />
<glyph unicode="Q" horiz-adv-x="1310" d="M100 588q0 228 132 384q137 212 316 212h4q217 0 320 -232q64 -122 64 -288q0 -148 -92 -252q118 -79 256 -196q90 -56 184 -84q20 -16 20 -20v-4q-84 -108 -160 -108q-96 0 -356 236l-88 52q-115 -64 -228 -64q-254 0 -356 240q-16 66 -16 124zM180 684q0 -262 280 -348 q57 -8 80 -8h20q132 0 232 76q28 76 28 160q0 242 -188 420q-94 60 -184 60h-40q-99 0 -120 -52q-108 -88 -108 -308z" />
<glyph unicode="R" horiz-adv-x="1154" d="M96 944q183 208 208 208l8 -12v-120q119 120 280 120q186 0 252 -148q28 -66 28 -136v-4q0 -195 -248 -380q281 -314 352 -320h4q45 0 136 44l4 -8q-70 -110 -220 -168q-18 -12 -76 -20q-88 0 -256 240q-96 130 -96 156v8q26 84 176 148q84 47 84 120q12 21 12 100 q0 200 -192 268q-38 8 -60 8h-20q-116 0 -160 -64q0 -35 -4 -192q0 -122 24 -624v-36q0 -61 -112 -128h-4q-8 0 -8 8q0 111 4 148q-4 198 -4 388v20q0 296 16 476h-4q-110 -108 -116 -108q-8 0 -8 8z" />
<glyph unicode="S" horiz-adv-x="946" d="M65 696v12q0 127 224 288q117 68 220 68h32q187 0 252 -100q0 -9 4 -16q0 -29 -76 -88q-66 -35 -108 -64q-8 0 -8 8q9 23 80 76q-95 60 -260 60q-240 -25 -240 -92q-20 -22 -20 -76q0 -98 344 -160q207 -53 300 -152q32 -55 32 -108v-28q0 -123 -220 -276 q-98 -48 -180 -48h-36q-171 0 -216 240q42 47 52 48h4q83 -146 168 -168q43 -12 72 -12h20q110 0 208 60q16 50 16 88q0 215 -484 312q-180 44 -180 128z" />
<glyph unicode="T" horiz-adv-x="1061" d="M-4 1004q0 20 136 140h8q0 -4 4 -4q-7 -17 -24 -36v-4q150 24 352 24q38 0 516 -32h64q28 0 88 4q0 -47 -128 -108q-55 -16 -100 -16h-48q-92 0 -284 28v-4q0 -108 4 -284q0 -34 -4 -244q6 -360 28 -360q0 -31 -96 -104q-8 -4 -12 -4l-4 8q0 13 8 72q-24 263 -40 828 q-9 42 -24 76l12 24v4q-178 8 -304 8q-74 0 -148 -24z" />
<glyph unicode="U" horiz-adv-x="1056" d="M-185 813q27 56 177 124q57 20 120 20h4q59 0 180 -4l4 -8v-8q-71 -72 -79 -272q-1 -29 -1 -57q0 -336 102 -427q51 -28 91 -28h20q181 0 316 300v49q0 44 1 71l7 180q2 60 2 164q83 112 124 112q4 -44 3.5 -171.5t-3.5 -340.5q41 -496 129 -496q8 4 12 4l4 -8 q-54 -90 -153 -124h-12q-82 0 -110 456q-253 -316 -421 -316h-20q-139 0 -166 236q-19 227 -19 339q0 20 1 37l2 40q3 76 33 136q-180 44 -202 44q-45 0 -142 -60z" />
<glyph unicode="V" horiz-adv-x="1008" d="M16 940q53 95 172 148h4q33 0 88 -128q195 -353 328 -692q8 -21 8 -24h4q36 111 204 712q-5 27 -48 80q0 39 88 88q22 4 32 4q36 -13 36 -72q0 -77 -188 -696q-53 -125 -92 -200l4 -20q0 -48 -124 -136l-16 -4q-16 27 -156 396q-200 425 -272 560q-8 4 -12 4 q-49 -32 -56 -32q-4 8 -4 12zM1164 924v4l4 20h8v-16q0 -8 -8 -8h-4z" />
<glyph unicode="W" horiz-adv-x="1484" d="M16 896v12q0 50 164 124q2 0 16 4q130 0 380 -700q40 -95 56 -152h4l220 284q-131 484 -208 484l-28 4q-18 0 -48 -16l-4 8q57 84 92 84q1 8 28 12h24q105 0 192 -300l212 -564h4q200 390 200 556v28q0 98 -116 208q0 36 80 84h4q46 -14 72 -56q44 -93 44 -180 q0 -240 -264 -720q-86 -100 -120 -100h-4q-30 0 -96 284q-4 0 -52 152q-145 -185 -236 -340q-84 -96 -128 -96h-4q-24 0 -76 228q-218 704 -324 704q-31 0 -76 -36h-8z" />
<glyph unicode="X" horiz-adv-x="1237" d="M59 36q76 116 120 116l20 -4q122 27 272 216l116 172q-244 428 -380 428q-29 0 -76 -44h-8v8q63 85 144 108h28q147 0 388 -356q114 160 272 308q107 84 148 84h16q32 0 32 -36v-4q0 -88 -60 -116q0 -4 -16 -12l-8 4l4 8v44q0 28 -32 28q-111 -4 -332 -344v-8 q220 -312 332 -448q47 -44 60 -44q17 0 56 28h12q-26 -76 -188 -164q-15 -8 -32 -8h-16q-48 0 -156 224q-88 156 -164 272h-4q-66 -124 -304 -352q-160 -132 -212 -132h-16q-7 0 -16 24z" />
<glyph unicode="Y" horiz-adv-x="866" d="M-81 938q6 49 139 140h16q100 0 292 -356q123 -218 127 -264l213 320q91 131 91 191q0 45 -93 129l-1 12q63 92 98 92q105 -75 105 -136q0 -94 -282 -480q-217 -360 -244 -520v-4q3 -38 83 -156v-4q-48 -100 -127 -132h-4q-25 0 -69 140l-2 24q-3 40 129 336h-4 q-15 20 -102 248q-229 444 -283 456l-21 8q-46 -48 -60 -48z" />
<glyph unicode="Z" horiz-adv-x="1022" d="M42 84q0 17 116 128q277 378 448 572q4 0 116 124q-54 -4 -80 -4h-76q-225 0 -372 52q-43 -48 -64 -48h-4v4q101 144 164 144q197 -20 260 -20q247 8 304 8l4 -8v-12q0 -37 -280 -324q-292 -376 -404 -512q46 8 84 8q373 -36 528 -36q102 0 196 44q4 -8 4 -12 q-26 -58 -116 -124q-114 -68 -184 -68h-20q-222 0 -548 72h-64q-6 0 -12 12z" />
<glyph unicode="[" horiz-adv-x="587" d="M134 824q-3 28 1 57q7 18 20 34q9 11 19 23q24 29 53 54q19 18 41 31q8 3 15 7h6h2q3 -1 7 0q12 1 24 3q59 11 116 32l12 4q2 1 4 1q4 0 4 -3t-1 -7t-2.5 -7t-2.5 -4q-11 -19 -26 -36q-27 -31 -59 -55q-13 -11 -29 -17q-24 -8 -47 -16v-7q1 -16 1 -33l4 -100 q2 -100 3 -200v-38q1 -77 -3 -154q-3 -51 -7 -103q-4 -32 -9 -65q-3 -12 -4 -25q-1 4 -1 7q-2 -10 6 -18q7 -8 17 -12q19 -8 38 -14l32 -10l6 -2q6 -1 13 -3q23 -7 47 -15q57 -18 113 -38l10 -4q2 0 1.5 -3.5t-3 -8l-5 -9t-4.5 -7l-2 -2.5q-14 -18 -30 -34t-34 -30 q-11 -9 -24 -14q-58 2 -114 17q-56 16 -112 33q-3 1 -7 2q-12 3 -24 7q-4 2 -8 3q-16 5 -29 14q-7 5 -9.5 9.5t-4.5 12.5q-1 9 0 18q0 2 1 4q2 27 4 55q4 59 4 118q-3 133 -8 265q-5 136 -14 272q0 5 -1 11z" />
<glyph unicode="\" horiz-adv-x="579" d="M87 999q-1 6 2.5 12t6.5 11l2 2q11 14 24 27q1 0 7 5.5t14 12.5t16 12t12 5q1 0 2 -1l8 -22q11 -29 21 -58q81 -217 164 -432q36 -94 77 -186q22 -50 46 -99l10 -20q20 -32 27 -68q1 -8 -2.5 -14t-7.5 -11l-2 -2q-12 -16 -26 -30q-18 -20 -42 -34q-7 -6 -15 -4 q-15 20 -23 44q-167 422 -321 850z" />
<glyph unicode="]" horiz-adv-x="556" d="M118.5 973.5q1.5 5.5 5.5 11.5t7 11t4 6q16 20 34 38q24 26 54 44q6 6 14 6q2 0 5 -1l36 -14q25 -9 50 -19q3 -2 6 -3l14 -6l6 -2q5 -2 9.5 -4t7.5 -5q9 -6 11 -16q1 -4 2 -9q1 -7 2 -15q1 -17 2 -35q1 -48 1 -96q0 -39 1 -77q4 -150 16 -299q4 -63 9 -127q3 -52 5 -105 v-13q1 -19 1 -39q-1 -3 -1 -6q1 -13 -2 -25q-6 -25 -22 -45q-44 -54 -106 -83l-50 -24q-5 -2 -11 -5q-40 -19 -81 -35q-3 -1 -4 0.5t-0.5 3.5t1.5 4t2 3q6 10 13 18q17 21 39 35q16 8 33 16l54 28q13 6 27 12l24 12q0 11 -1 23v7q-1 23 -3 45q-3 51 -8 102l-12 124 q-4 37 -7 74q-10 99 -16 198q-3 40 -4 79q-2 54 -7 108v3q-1 13 -6 24q-2 9 -9 15q-11 5 -23 8q-3 0 -5 1q-17 5 -34 11q-41 15 -82 31q-3 1 -1.5 6.5z" />
<glyph unicode="^" horiz-adv-x="973" d="M186 1081q1 45 13 89q3 18 13 34q112 80 194 189l10 14q29 36 52 75q2 5 5 10q0 1 1 2q1 3 2.5 6t3.5 4q1 2 3 1.5t5 -3.5q4 -14 35.5 -71t96.5 -137q17 -22 35 -43q40 -47 76 -97q5 -15 5 -30v-12v-11q-1 -26 -6 -52q-3 -20 -10 -39q-2 -11 -12 -15q-35 34 -63 75 q-6 7 -11 14l-42 56q-15 20 -31 40q-50 66 -101 133q0 1 -1 3v2q-8 -20 -18 -39q-19 -34 -40 -66q-22 -33 -49 -63q-66 -75 -148 -134q-8 -9 -13 1l-2 8q-1 3 -2 7q-3 24 -1 49z" />
<glyph unicode="_" d="M238 -100h1024v-60h-1024v60z" />
<glyph unicode="`" d="M519 1363q0 31 20.5 51t53.5 20q20 0 40.5 -12t55.5 -47l291 -296h-69l-330 202q-31 20 -46.5 40t-15.5 42z" />
<glyph unicode="a" horiz-adv-x="956" d="M100 212v12q0 230 356 444q100 52 168 52q107 0 132 -140q68 -275 132 -436q-30 -71 -132 -140q-7 -4 -16 -4q-28 48 -104 252q-85 -81 -280 -188q-67 -24 -104 -24h-16q-89 0 -124 92q-12 29 -12 80zM264 324q15 -140 120 -140q80 0 236 104q-67 228 -116 228 q-3 10 -52 16q-172 -29 -172 -88q-16 -56 -16 -120z" />
<glyph unicode="b" horiz-adv-x="791" d="M125 1272q30 67 180 172q52 44 80 44l8 -12v-16q0 -31 -56 -624l-24 -288v-4h4q87 142 228 192l28 4q160 -26 160 -208v-16q0 -203 -348 -428q-164 -88 -220 -88h-4q-8 0 -8 8q56 101 144 144q272 100 272 156q20 55 20 108q0 169 -136 196q-51 0 -64 -48 q-100 -146 -100 -380q-77 -108 -116 -108q-8 12 -8 28q16 178 44 680l48 560h-4q-104 -80 -120 -80q-8 0 -8 8z" />
<glyph unicode="c" horiz-adv-x="716" d="M100 204v4q0 229 312 448q75 32 108 32q72 0 96 -48q24 -47 36 -116q-35 -82 -152 -160h-12q-5 0 -36 104q-37 44 -76 44h-8q-72 0 -72 -52q-16 -39 -16 -100q0 -119 144 -172q57 -20 148 -20h80q8 -1 8 -8q-85 -160 -288 -160q-220 0 -264 144q-8 38 -8 60z" />
<glyph unicode="d" horiz-adv-x="696" d="M108 144v8q0 149 304 388q-15 104 -104 192q-25 22 -140 96q-21 27 -24 60q0 116 100 264q27 16 36 16q0 -4 4 -4q-20 -71 -28 -156q0 -62 132 -116q180 -87 180 -400q4 -54 4 -76q0 -271 -252 -404q-30 -12 -64 -12q-105 0 -140 92q-8 18 -8 52zM260 284q0 -92 116 -132 h32q20 76 20 148v48q0 88 -8 140q-160 -100 -160 -204z" />
<glyph unicode="e" horiz-adv-x="725" d="M100 228v8q0 143 240 316q113 72 188 72q72 -7 72 -64q-68 -183 -268 -288q-44 -16 -52 -16q93 -100 216 -100h28q80 0 156 72q13 8 20 8q4 -8 4 -12q-51 -88 -184 -180q-62 -44 -144 -44q-156 0 -256 136q-20 49 -20 92zM248 332l48 32l20 -4q140 21 140 68 q-16 44 -60 44q-69 0 -136 -48q-12 -26 -12 -64v-28z" />
<glyph unicode="f" horiz-adv-x="660" d="M-67 372q82 125 142 125h216q28 383 88 433q62 110 158 159q14 8 25 8h17q68 0 79 -100q0 -113 -79 -158q-8 0 -8 8q8 42 8 75q0 63 -83 75q-33 0 -46 -92q-29 -196 -29 -404q-5 0 -5 -4l9 -4q129 -4 204 -4h8q36 0 50 -13q0 -36 -121 -125l-29 -4h-116l-9 4 q0 -272 -71 -537q-78 -205 -195 -267h-13q-8 0 -8 8t54 96q79 229 79 396q8 49 25 313h-75q-74 0 -121 4q-30 -4 -112 -4h-34q-8 0 -8 12z" />
<glyph unicode="g" horiz-adv-x="816" d="M88 -369q0 93 68 128q16 -77 56 -128q124 -124 240 -124q92 11 92 32q4 16 4 32v24q0 169 -104 296q-44 57 -276 144q-72 40 -72 116q0 143 276 360q87 48 140 48q80 0 132 -100q8 -39 8 -44q0 -90 -232 -300v-4q150 -53 208 -172q44 -119 44 -244q0 -142 -208 -272 q-65 -32 -124 -32q-111 0 -224 144q-28 61 -28 96zM240 251q0 -68 152 -124v4q124 113 124 132q0 9 4 16q0 73 -140 116h-8q-128 0 -128 -116q-4 0 -4 -28z" />
<glyph unicode="h" horiz-adv-x="855" d="M143 16l84 728q16 186 16 248v4q0 144 -44 144q-6 0 -36 -8q-4 8 -4 12q46 91 144 148q16 8 44 8h12q35 0 44 -144v-12q0 -179 -68 -640v-4h4q141 168 276 168h12q136 0 136 -188v-24q-25 -341 -68 -412q-71 -115 -188 -276q-30 -45 -80 -148q-25 -24 -36 -24q0 4 -4 4 q7 63 132 268q56 49 56 256q20 127 20 220v28q0 139 -104 168h-16q-98 0 -132 -112q-39 -58 -68 -296q0 -27 -116 -120h-12q0 4 -4 4z" />
<glyph unicode="i" horiz-adv-x="528" d="M125 480v4q32 88 160 172h16q44 0 44 -320v-20q0 -102 112 -164v-8q-34 -68 -132 -140l-20 -4h-20q-124 0 -124 200v144q0 108 -36 136zM165 748q25 79 152 168q36 20 56 20h12q36 0 68 -36q0 -41 -140 -148q-4 0 -12 -4q-27 4 -44 4q-34 0 -88 -12z" />
<glyph unicode="j" horiz-adv-x="351" d="M-246 -809q28 50 140 124q71 36 100 136q32 142 108 824q4 1 36 224q-8 0 -8 8q-2 0 -72 -24l-4 8q0 46 128 132q72 28 88 28q6 0 16 -16v-4q-76 -790 -116 -988q-28 -132 -156 -276q-179 -174 -256 -188l-4 8v4zM38 799v12q35 89 168 176h12q84 -113 84 -160 q0 -50 -136 -152q-7 -4 -16 -4h-24q-21 14 -88 128z" />
<glyph unicode="k" horiz-adv-x="820" d="M125 24q0 161 64 720q16 179 20 424q-4 63 -4 92q74 136 192 188h4l4 -8v-156q0 -372 -136 -1132q-26 -70 -128 -140h-8q-8 0 -8 12zM373 288v20q0 32 148 208q32 60 32 84v16q0 61 -64 108q-35 17 -36 24q31 71 140 152q13 8 24 8q108 -41 108 -148v-12 q-1 -72 -172 -284v-4q7 -59 188 -260q8 -26 8 -36q-69 -116 -164 -160q-7 -4 -20 -4h-4q-46 0 -104 108q-73 102 -84 180z" />
<glyph unicode="l" horiz-adv-x="523" d="M125 1292q60 113 168 168q34 4 56 4q57 0 68 -192v-16q0 -200 -108 -1048v-56q0 -51 -132 -148q-7 -4 -16 -4q-8 0 -8 8q0 228 80 1068v44q-2 149 -52 168q-27 -4 -44 -4h-4q-8 0 -8 8z" />
<glyph unicode="m" horiz-adv-x="1297" d="M74 520v8q22 80 176 196l28 12q109 0 140 -192l8 -60q134 112 192 112h20q82 0 120 -160h8q140 172 288 172q76 0 104 -76q32 -105 32 -316v-40q0 -98 -140 -176q-11 0 -24 340q-27 124 -84 124h-28q-96 0 -96 -68q-16 -21 -36 -176q-109 -136 -152 -136h-4 q0 274 -96 348q-22 12 -36 12q-48 0 -48 -44q-4 -5 -12 -60q4 -56 4 -108q0 -71 -188 -212h-16q-13 0 -20 248q-19 150 -56 204q-45 48 -84 48z" />
<glyph unicode="n" horiz-adv-x="882" d="M50 452q0 49 152 172q68 31 116 40h20q70 0 96 -204h4q55 68 120 104q70 36 116 36h20q120 0 120 -292q0 -259 -104 -300q0 -8 -16 -8q-18 0 -44 364q-31 108 -92 108h-4q-84 0 -84 -60q-32 -68 -32 -172q-128 -164 -180 -164q-8 0 -8 8q0 381 -96 392l-100 -32z" />
<glyph unicode="o" horiz-adv-x="608" d="M60 112v12q0 87 180 260q-40 30 -44 48q36 93 160 168h24q69 -20 176 -200q24 -57 24 -100q0 -122 -224 -280q-58 -20 -84 -20h-40q-172 21 -172 112zM196 248q27 -92 176 -92h12q20 0 20 8q-10 71 -116 180q-57 -60 -84 -60q-8 -33 -8 -36z" />
<glyph unicode="p" horiz-adv-x="769" d="M-33 484q56 109 168 168q7 0 72 4q88 0 124 -104v-12q174 140 224 140h16q70 0 184 -144q16 -40 16 -68v-4q0 -172 -264 -376q-81 -44 -144 -44h-16q-28 0 -28 20h-8q-40 -445 -52 -464q-37 -73 -132 -136h-12q-3 0 -12 12q68 629 68 768q0 167 -72 220q-45 16 -52 16 q-38 -4 -72 -4q-8 0 -8 8zM315 76h4q0 25 100 108l48 -4q120 16 120 52q16 50 16 84v4q0 78 -160 228h-16q-22 0 -88 -52q4 -40 4 -60q0 -134 -28 -356v-4z" />
<glyph unicode="q" horiz-adv-x="694" d="M80 252q0 212 236 364q88 36 136 36q4 -8 4 -12q-86 -140 -192 -140q-32 0 -32 -96q14 -116 92 -116h8q88 0 88 36q12 49 16 120q-24 63 -24 80q52 80 92 80q88 0 88 -136q0 -35 -40 -484q-8 -79 -8 -236q0 -80 -68 -128q-38 -40 -60 -40q-12 15 -12 56v112q0 174 32 488 q-144 -116 -252 -116q-65 0 -92 64z" />
<glyph unicode="r" horiz-adv-x="717" d="M92 496q44 99 168 176h8q84 -46 84 -168q4 0 4 -32q126 112 208 112h12q84 0 124 -60v-4q-30 -79 -144 -152h-8q-9 2 -40 64q-32 28 -60 28q-68 0 -68 -48q-24 -45 -36 -240q-62 -98 -148 -152q0 -9 -36 -20q-4 8 -4 12q20 179 20 252q0 157 -56 208q-28 17 -28 24z" />
<glyph unicode="s" horiz-adv-x="655" d="M88 84q0 33 112 120q7 4 16 4q46 -64 140 -64h16q0 50 -216 140q-44 41 -44 76q0 81 196 236q59 28 92 28q107 0 148 -68v-16q-53 -83 -132 -132h-12q-54 68 -136 68h-24v-4q0 -60 188 -128q92 -65 92 -132q0 -64 -160 -180q-51 -32 -120 -32h-8q-148 0 -148 84z" />
<glyph unicode="t" horiz-adv-x="673" d="M38 348v4q54 120 196 200q84 12 84 20q13 103 40 136q80 80 104 84q4 -8 4 -12q-36 -186 -36 -204q4 0 4 4q101 4 160 4h68q6 0 12 -12v-4q0 -46 -152 -164q-36 -28 -108 -28h-8q-13 0 -16 -124q0 -109 120 -156v-8q-35 -57 -88 -88q-156 0 -156 168q0 96 16 200 q-78 0 -240 -28z" />
<glyph unicode="u" horiz-adv-x="932" d="M92 456q0 48 156 176q60 24 76 24h4q52 0 52 -140v-68q0 -38 -4 -92q0 -128 92 -128q79 0 160 72q31 44 112 212q71 68 80 68h4q8 -1 8 -8q-20 -120 -20 -176q0 -148 52 -244q-33 -82 -144 -152h-8q-40 0 -40 84q0 47 12 192q-258 -252 -392 -252h-12q-104 0 -104 132 q8 127 8 204q0 76 -36 104q-39 -16 -48 -16q-8 0 -8 8z" />
<glyph unicode="v" horiz-adv-x="865" d="M51 344q67 116 248 244l28 4q44 0 104 -332q19 -76 68 -76q111 0 148 128q16 52 32 128q87 104 120 104h4q16 -4 16 -40q0 -166 -284 -416q-125 -88 -212 -88q-52 0 -68 60q-45 368 -76 368q-90 -92 -120 -92q-8 0 -8 8z" />
<glyph unicode="w" horiz-adv-x="1082" d="M59 440q27 75 172 184l44 16q94 0 128 -292q7 -21 24 -124h4q78 115 120 264q65 76 92 76q17 -16 60 -260q35 -120 100 -120q60 0 60 144l-16 132q52 81 124 124h12q20 -8 24 -100v-48q0 -193 -252 -376q-57 -37 -108 -40q-92 0 -92 184q-4 22 -4 80q-221 -284 -312 -284 q-15 0 -32 212q-35 244 -96 244q-23 -24 -44 -24q-8 0 -8 8z" />
<glyph unicode="x" horiz-adv-x="809" d="M45 463q105 159 216 216l24 4q58 0 172 -204h4q180 224 272 228q39 0 84 -132q-75 -108 -112 -108q-53 120 -80 120h-4q-43 0 -132 -156q180 -337 180 -368v-12q0 -55 -136 -156l-28 -4q-11 11 -40 96q-38 93 -104 208q-72 -168 -204 -496q-41 -46 -68 -60h-16v8 q148 398 256 612q-143 260 -188 260q-61 -68 -92 -68q-4 8 -4 12z" />
<glyph unicode="y" horiz-adv-x="663" d="M-156 481q89 144 204 144h8q97 0 116 -392v-12q169 231 284 360q84 88 116 88q56 -56 96 -160q8 -15 8 -32v-16q0 -23 -124 -256q-87 -163 -140 -360q-48 -181 -48 -540q0 -61 -80 -108q-12 12 -12 76v88q0 440 180 796q72 148 72 172q0 38 -84 184h-4 q-199 -293 -304 -408q-54 -48 -76 -48q-14 0 -28 240q-34 200 -92 200h-8q-15 0 -80 -24z" />
<glyph unicode="z" horiz-adv-x="749" d="M64 520q41 98 236 208q21 8 32 8q22 0 188 -60q116 -14 116 -36q0 -41 -244 -304l-172 -212v-4q95 12 144 12h196q63 0 136 68q15 12 28 12q4 -8 4 -12q-56 -89 -180 -172q-57 -28 -80 -28q-177 24 -224 24q-12 0 -124 -8l-8 12v4q38 90 356 460v4q-119 0 -252 88l-24 4 q-14 0 -116 -76h-8z" />
<glyph unicode="{" d="M428 638v60q172 5 223 71t51 133v468q0 74 77 141.5t185 67.5h108v-50h-90q-61 0 -107 -33.5t-47 -91.5v-500q0 -83 -60.5 -158.5t-142.5 -76.5v-2q82 -1 143 -76t61 -158l-1 -500q1 -58 47 -91.5t107 -33.5h90v-50h-108q-108 0 -184.5 67.5t-77.5 141.5v468 q0 66 -51 132t-223 71z" />
<glyph unicode="|" d="M670 -418v1995h160v-1995h-160z" />
<glyph unicode="}" d="M428 -192h90q61 0 107 33.5t47 91.5l-1 500q0 83 61 158t144 76v2q-83 1 -143.5 76.5t-60.5 158.5v500q-1 58 -47 91.5t-107 33.5h-90v50h108q108 0 185 -67.5t77 -141.5v-468q0 -67 51 -133t223 -71v-60q-172 -5 -223 -71t-51 -132v-468q-1 -74 -77.5 -141.5 t-184.5 -67.5h-108v50z" />
<glyph unicode="~" d="M335 556v156q64 73 123 99t114 26q64 0 181.5 -49.5t172.5 -49.5q52 0 108.5 28t129.5 112v-156q-63 -72 -122 -97.5t-116 -25.5q-60 0 -177.5 48.5t-176.5 48.5q-51 0 -107.5 -28t-129.5 -112z" />
<glyph unicode="&#xa1;" horiz-adv-x="540" d="M132 885q0 15 14 31l80 88q20 20 29 20q16 0 29 -14l88 -101q10 -13 10 -26q0 -15 -16 -31l-82 -84q-15 -14 -29 -14q-13 0 -31 16l-80 86q-12 16 -12 29zM159 -345l80 1036h37l49 -1036q0 -46 -21 -69t-62 -23q-42 0 -62.5 23t-20.5 69z" />
<glyph unicode="&#xa2;" horiz-adv-x="863" d="M154 -250l541 1484h80l-541 -1484h-80zM155 277v4q0 229 312 448q75 32 108 32q72 0 96 -48q24 -47 36 -116q-35 -82 -152 -160h-12q-5 0 -36 104q-37 44 -76 44h-8q-72 0 -72 -52q-16 -39 -16 -100q0 -119 144 -172q57 -20 148 -20h80q8 -1 8 -8q-85 -160 -288 -160 q-220 0 -264 144q-8 38 -8 60z" />
<glyph unicode="&#xa3;" d="M320 673v60h135q-58 143 -58 253q0 226 123.5 347t306.5 121h4q75 0 185.5 -14t110.5 -34v-161h-58q-5 61 -77 102q-72 31 -160 31h-2q-100 0 -190 -101q-84 -93 -84 -241q0 -15 1 -30q0 -135 53 -273h360v-60h-334q14 -30 31 -60q35 -63 35 -138q0 -161 -162 -375h402 q130 0 189 132l49 -1l-103 -231h-719l1 50q187 238 187 418q0 77 -34 143q-17 32 -31 62h-161z" />
<glyph unicode="&#xa4;" d="M365 413l118 117q-32 46 -48 103q-12 42 -12 84q0 44 13 87q16 55 47 99l-118 118l80 81l118 -118q44 30 99 46q44 14 89 14q41 0 83 -12q57 -17 102 -48l118 118l80 -81l-117 -117q31 -46 48 -102q12 -42 12 -85q0 -42 -12 -85q-17 -56 -48 -102l117 -117l-80 -81 l-118 118q-45 -32 -101 -48q-42 -12 -85 -12q-42 0 -85 12q-57 16 -102 48l-118 -118zM527 716q0 -28 9 -56q16 -59 57 -100q41 -40 99 -57q29 -8 58 -8t58 8q58 17 99 57q40 41 57 99q9 29 9 58t-9 58q-17 58 -57 99q-41 40 -100 57q-29 8 -58 8t-58 -9q-58 -17 -98 -56 q-39 -40 -56 -98q-10 -30 -10 -60z" />
<glyph unicode="&#xa5;" horiz-adv-x="863" d="M-58 452v60h1024v-60h-1024zM-58 572v60h1024v-60h-1024zM2 938q5 49 118 140h14q85 0 248 -356q105 -218 108 -264l181 320q81 137 77 196q-2 43 -79 124v12q53 92 83 92q86 -72 89 -132q5 -90 -240 -484q-184 -360 -207 -520v-4q3 -38 71 -156v-4q-41 -100 -108 -132 h-4q-21 0 -58 140l-2 24q-3 40 109 336h-3q-13 20 -87 248q-194 444 -240 456l-18 8q-39 -48 -51 -48z" />
<glyph unicode="&#xa6;" d="M670 145v858h160v-858h-160zM670 -279v858h160v-858h-160z" />
<glyph unicode="&#xa7;" d="M413 1130q0 148 89 237q82 79 216 86q8 1 17 1h3q66 0 163 -16.5t97 -41.5v-194h-51q-5 81 -80 132q-70 47 -149 51h-15q-78 0 -125 -44.5t-47 -117.5q0 -132 287 -269q149 -67 204.5 -143.5t55.5 -187.5q0 -171 -101 -282q-47 -39 -99 -64q108 -56 154 -118 q55 -77 55 -187q0 -171 -101 -283q-124 -102 -277 -105v1q-6 -1 -13 -1h-3q-66 0 -163 16.5t-97 41.5v194h51q5 -81 80 -132q68 -45 145 -50q113 6 185 69q72 64 72 165q0 125 -316 276q-123 64 -175.5 137t-52.5 177q0 148 89 237q67 65 170 82l-40 19q-123 64 -175.5 137 t-52.5 177zM540 571q0 -123 248 -250q56 16 97 53q73 65 73 166q0 5 -1 10h-2q-1 14 -4 27q-22 61 -113 127q-59 29 -126 29q-78 0 -125 -44.5t-47 -117.5z" />
<glyph unicode="&#xa8;" d="M459 1263q0 13 14 26l71 72q13 12 25 12q11 0 27 -14l69 -73q10 -14 10 -25q0 -13 -12 -27l-69 -75q-17 -17 -25 -17q-14 0 -25 12l-76 86q-9 12 -9 23zM824 1263q0 13 14 26l71 72q13 12 25 12q11 0 27 -13l69 -74q10 -14 10 -25q0 -13 -12 -26l-69 -76q-17 -17 -25 -17 q-14 0 -25 12l-76 87q-9 11 -9 22z" />
<glyph unicode="&#xa9;" horiz-adv-x="1510" d="M141 708q0 125 47 240t136 203q86 88 202.5 136t243.5 48q123 0 238 -48t203 -136q87 -86 135 -202.5t48 -240.5q0 -125 -48 -240t-138 -204q-89 -89 -203 -135.5t-241 -46.5q-124 0 -236 47t-203 137q-90 88 -137 201.5t-47 240.5zM192 708q0 -117 43.5 -220.5 t125.5 -186.5q83 -81 186 -124.5t218 -43.5q116 0 220.5 43t186.5 124q83 83 127 188t44 220q0 114 -44 220.5t-124 186.5q-81 81 -186.5 125t-219.5 44q-116 0 -222.5 -44t-187.5 -125q-80 -82 -123.5 -187t-43.5 -220zM354 709q0 107 56 207t159.5 156.5t215.5 56.5 q33 0 64.5 -5.5t64.5 -17.5q4 -1 7 -1q16 0 22 26h36l61 -168h-37q-44 80 -111 105q-62 22 -125 22h-13q-73 -7 -141.5 -60.5t-103.5 -150.5q-28 -76 -28 -156q0 -21 2 -43q9 -102 59 -189.5t127 -129.5q61 -34 141 -36q105 0 164.5 47.5t59.5 107.5h45v-85q0 -39 -82 -73.5 t-206 -34.5q-120 0 -224 58t-158.5 157t-54.5 207z" />
<glyph unicode="&#xaa;" horiz-adv-x="688" d="M88 728v7q0 138 235 267q66 31 111 31q70 0 87 -84q45 -165 87 -262q-20 -42 -87 -84q-5 -2 -11 -2q-18 29 -68 151q-56 -48 -185 -113q-44 -14 -69 -14h-10q-59 0 -82 55q-8 18 -8 48zM111 882v60h512v-60h-512zM196 795q10 -84 79 -84q53 0 156 63q-44 137 -76 137 q-2 6 -35 9q-113 -17 -113 -53q-11 -33 -11 -72z" />
<glyph unicode="&#xab;" horiz-adv-x="1813" d="M572 479l342 303h14v-37l-205 -266l205 -266v-37h-14zM885 479l342 303h14v-37l-205 -266l205 -266v-37h-14z" />
<glyph unicode="&#xac;" d="M330 667v100h840v-491l-1 -1h-98v392h-741z" />
<glyph unicode="&#xae;" horiz-adv-x="2000" d="M373 708q0 125 47 240t136 203q86 88 202.5 136t243.5 48q123 0 238 -48t203 -136q87 -86 135 -202.5t48 -240.5q0 -125 -48 -240t-138 -204q-89 -89 -203 -135.5t-241 -46.5q-124 0 -236 47t-203 137q-90 88 -137 201.5t-47 240.5zM424 708q0 -117 43.5 -220.5 t125.5 -186.5q83 -81 186 -124.5t218 -43.5q116 0 220.5 43t186.5 124q83 83 127 188t44 220q0 114 -44 220.5t-124 186.5q-81 81 -186.5 125t-219.5 44q-116 0 -222.5 -44t-187.5 -125q-80 -82 -123.5 -187t-43.5 -220zM733 326v43h37q31 0 31 102v458q0 103 -31 103h-37 v59h303q54 -1 106 -36q51 -35 79 -97t28 -129q0 -66 -27.5 -127.5t-97.5 -114.5l70 -99q85 -119 128 -119h29v-43h-295v43h39q25 0 25 18q0 25 -58 97l-64 87q-36 0 -72 36v-136q0 -102 31 -102h45v-43h-269zM926 714l3 -7q19 -48 48 -69q24 -19 47 -19h5q27 4 52.5 33 t39.5 83q11 42 11 87q0 11 -1 23q-3 57 -23.5 106t-48 65t-54.5 16h-79v-318z" />
<glyph unicode="&#xaf;" horiz-adv-x="656" d="M126 1282v83q0 29 41 29h356q41 0 41 -29v-83q0 -28 -40 -28h-358q-40 0 -40 28z" />
<glyph unicode="&#xb0;" d="M472 1164q0 116 81.5 197t197.5 81q115 0 196 -81.5t81 -196.5q0 -114 -82 -196t-197 -82q-117 0 -197 81t-80 197zM542 1163q0 -87 61 -147t148 -60t147 60t60 147t-60.5 148t-146.5 61t-147.5 -61t-61.5 -148z" />
<glyph unicode="&#xb1;" horiz-adv-x="971" d="M77 647v140h350v369l1 1h139v-370h349l1 -1v-139h-350v-370h-140v370h-350zM330 0v140h839l1 -1v-139h-840z" />
<glyph unicode="&#xb2;" horiz-adv-x="863" d="M62 636v16q60 103 212 200q105 60 172 60h4q115 0 156 -112q12 -43 12 -72v-28q0 -231 -284 -520h4q372 27 372 56l136 56l4 -8v-4q-22 -75 -156 -172q-174 -108 -284 -108l-292 24l-4 8q0 47 180 188q112 150 112 316q0 125 -112 176l-28 4q-73 0 -192 -88h-8z" />
<glyph unicode="&#xb3;" horiz-adv-x="863" d="M77 940v8q0 39 120 132q33 13 140 72q36 16 76 16h24q156 0 156 -80q-22 -143 -276 -364h4q119 20 200 20q191 0 252 -172q12 -40 12 -92q0 -172 -268 -368q-96 -59 -256 -100q-65 -12 -84 -12h-24q-6 0 -12 12v16q0 49 140 148q226 42 304 80q8 30 8 56v20 q0 152 -168 224q-62 20 -132 20q-35 0 -152 -8q-20 5 -20 12v8q0 42 248 260q20 49 20 68q0 47 -132 92h-12q-29 0 -160 -68h-8z" />
<glyph unicode="&#xb4;" d="M519 1078l291 297q35 35 55.5 47t40.5 12q33 0 53.5 -20t20.5 -51q0 -22 -15.5 -42t-46.5 -40l-330 -203h-69z" />
<glyph unicode="&#xb5;" horiz-adv-x="715" d="M-60 -450q10 133 13 267v11q3 110 13 220q1 17 3 34q3 38 8 75q10 62 21 125q2 15 6 30q2 7 3 15q8 35 15 71q8 38 18 75l6 28q11 43 25 86l6 20q13 41 29 81q4 11 8 21q19 51 44 101q11 23 23 47q7 12 13 24q16 29 38 55q19 21 41 40q17 15 36 27q7 6 14 6q3 0 6 -1 q0 -4 1 -8q-1 -6 -4 -12.5t-7 -12.5q0 -1 -1 -3q-5 -8 -9 -16q-6 -10 -11 -19q-2 -2 -3 -4q-14 -24 -27 -48q-11 -19 -21 -39q-9 -20 -17 -40q-5 -13 -10 -25q-11 -28 -20 -57q-9 -28 -17 -56l-4 -12q-5 -13 -8 -26q-1 -6 -3 -12q-2 -8 -4 -17q-10 -68 -3 -136 q7 -81 43 -153q15 -31 41 -52q25 -19 57 -24q26 1 50 11q12 6 23 13l8 6q3 2 5 5q2 1 4 3l12 14q13 17 25 34q39 63 72 129q1 2 2 5l1 1q0 1 1 2q1 41 7 81q9 83 31 162q15 52 39 101q35 63 90 109q16 15 34 26q9 8 19 5q8 -4 6 -12q1 -4 1 -7q-4 -15 -7 -30q-4 -14 -7 -28 q-6 -24 -13 -47q-15 -52 -33 -104q-18 -49 -38 -98q-1 -3 -2 -5q-4 -54 0 -108q3 -24 10.5 -48t23.5 -41q29 -27 65 -43q4 -2 2 -8t-6.5 -13.5t-8 -12.5t-4.5 -6q-17 -23 -38 -43q-27 -30 -62 -51q-10 -8 -21 -5q-21 4 -37 17q-18 18 -30 40q-18 42 -20 87v6 q-21 -31 -45 -61q-50 -66 -117 -113q-24 -18 -52 -26q-28 -9 -56 -1q-33 12 -56 39q-19 23 -31 49q-22 47 -36 98q-3 -15 -5 -29q-2 -13 -4 -25q-7 -39 -12 -78l-4 -42q-2 -19 -4 -37q-1 -7 -2 -13q-2 -14 -3 -27q-6 -118 -10 -236q-4 -115 -13 -229q-5 -15 -15 -27 q-4 -4 -7 -8q-4 -5 -7 -9q-17 -19 -37 -36q-15 -14 -32 -24q-6 -3 -11 -5q-10 -3 -7 7zM161 463v2v-2zM378 261q4 3 7 7q-3 -4 -7 -7zM386 268q0 1 1 1z" />
<glyph unicode="&#xb6;" d="M332 1086q0 157 107.5 253t285.5 96h443v-70h-127v-1365h-82v1365h-166v-1365h-84v738q-174 8 -275.5 102.5t-101.5 245.5z" />
<glyph unicode="&#xb7;" d="M75 632q0 12 14 26l70 71q12 12 24 12q11 0 27 -13l68 -73q10 -14 10 -25q0 -13 -12 -26l-68 -75q-17 -17 -25 -17q-13 0 -24 12l-75 85q-9 12 -9 23z" />
<glyph unicode="&#xb8;" d="M546 -290q85 -52 152 -52q66 0 94.5 21.5t28.5 66.5t-49 64q-40 16 -102 16q-16 0 -34 -2l48 176h63l-37 -104q32 4 62 5q86 0 134 -40.5t48 -113.5q0 -76 -58.5 -120.5t-160.5 -44.5q-109 0 -189 32v96z" />
<glyph unicode="&#xb9;" horiz-adv-x="863" d="M115 676q37 110 256 228q230 138 380 248h12l4 -8v-12q-88 -223 -156 -520q-32 -174 -56 -412q-23 -73 -184 -192q0 -8 -20 -8h-4q-7 0 -12 20q43 439 140 712q36 101 76 196q-203 -135 -424 -260h-4q-8 0 -8 8z" />
<glyph unicode="&#xba;" horiz-adv-x="599" d="M89 954v60h512v-60h-512zM109 711v7q0 53 118 156q-26 18 -29 29q24 56 106 101h16q45 -12 116 -120q16 -34 16 -60q0 -73 -148 -168q-38 -12 -55 -12h-27q-113 13 -113 67zM198 793q18 -55 117 -55h7q14 0 14 4q-7 43 -77 108q-38 -36 -55 -36q-6 -19 -6 -21z" />
<glyph unicode="&#xbb;" horiz-adv-x="1813" d="M572 176v37l205 266l-205 266v37h14l342 -303l-342 -303h-14zM885 176v37l205 266l-205 266v37h14l342 -303l-342 -303h-14z" />
<glyph unicode="&#xbc;" d="M-73 963q37 110 256 228q230 138 380 248h12l4 -8v-12q-88 -223 -156 -520q-32 -174 -56 -412q-23 -73 -184 -192q0 -8 -20 -8h-4q-7 0 -12 20q43 439 140 712q36 101 76 196q-203 -135 -424 -260h-4q-8 0 -8 8zM124 -72l940 1461h84l-938 -1461h-86zM638 258 q14 63 340 492q94 139 120 168q94 104 140 104l4 -8q-40 -205 -84 -664q184 11 184 24l4 -8v-8q-36 -87 -156 -160q-52 0 -52 -28q-16 -145 -48 -180q-80 -88 -112 -88h-4q-8 0 -8 12q0 25 8 272q4 0 4 4q-340 14 -340 68zM770 382q0 -36 184 -36h28q0 84 40 376 q-160 -200 -252 -340z" />
<glyph unicode="&#xbd;" horiz-adv-x="1478" d="M-17 911q37 110 256 228q230 138 380 248h12l4 -8v-12q-88 -223 -156 -520q-32 -174 -56 -412q-23 -73 -184 -192q0 -8 -20 -8h-4q-7 0 -12 20q43 439 140 712q36 101 76 196q-203 -135 -424 -260h-4q-8 0 -8 8zM180 -124l940 1461h84l-938 -1461h-86zM753 519v16 q60 103 212 200q105 60 172 60h4q115 0 156 -112q12 -43 12 -72v-28q0 -231 -284 -520h4q372 27 372 56l136 56l4 -8v-4q-22 -75 -156 -172q-174 -108 -284 -108l-292 24l-4 8q0 47 180 188q112 150 112 316q0 125 -112 176l-28 4q-73 0 -192 -88h-8z" />
<glyph unicode="&#xbe;" d="M-20 1227v7q1 33 106 113q29 11 121 61q31 14 66 14h20q133 0 131 -68q-23 -122 -245 -311h3q102 17 171 17q163 0 211 -147q9 -34 8 -78q-5 -147 -239 -314q-84 -50 -222 -86q-56 -10 -72 -10h-20q-5 0 -10 10v14q2 42 124 126q194 36 262 69q7 25 8 47l1 17 q4 130 -138 192q-52 17 -112 17q-30 0 -130 -7q-17 4 -16 10v7q1 36 219 222q18 42 18 58q2 40 -110 78h-10q-25 0 -138 -58h-7zM124 -72l940 1461h84l-938 -1461h-86zM638 258q14 63 340 492q94 139 120 168q94 104 140 104l4 -8q-40 -205 -84 -664q184 11 184 24l4 -8v-8 q-36 -87 -156 -160q-52 0 -52 -28q-16 -145 -48 -180q-80 -88 -112 -88h-4q-8 0 -8 12q0 25 8 272q4 0 4 4q-340 14 -340 68zM770 382q0 -36 184 -36h28q0 84 40 376q-160 -200 -252 -340z" />
<glyph unicode="&#xbf;" horiz-adv-x="641" d="M86 -165q0 69 32.5 140t124.5 186q90 113 141.5 187.5t51.5 142.5q0 63 -35 189h47q50 -138 50 -211q0 -109 -116.5 -312t-116.5 -309q0 -82 47 -129t130 -47q84 0 178 81v-64q-128 -104 -242 -104q-132 0 -212 68t-80 182zM295 885q0 15 14 31l80 88q20 20 29 20 q16 0 29 -14l88 -101q10 -13 10 -26q0 -15 -16 -31l-82 -84q-15 -14 -29 -14q-13 0 -31 16l-80 86q-12 16 -12 29z" />
<glyph unicode="&#xc0;" horiz-adv-x="862" d="M64 92v4q138 484 304 816q-20 64 -56 64q-4 0 -56 -20h-4v4q66 103 160 148l24 4h12q93 0 144 -440q64 -299 132 -420q32 -72 88 -72q16 0 16 -8q-61 -110 -188 -172h-8q-34 0 -60 112q-48 103 -108 336q-77 -32 -108 -32h-36q-100 0 -100 44h-4q-96 -329 -116 -344 q0 -6 -24 -24h-12zM139 1773q0 31 20.5 51t53.5 20q20 0 40.5 -12t55.5 -47l291 -296h-69l-330 202q-31 20 -46.5 40t-15.5 42zM228 496h4q83 36 120 36h12q26 0 80 -4v4q-32 209 -60 344q-10 -4 -116 -268z" />
<glyph unicode="&#xc1;" horiz-adv-x="862" d="M64 92v4q138 484 304 816q-20 64 -56 64q-4 0 -56 -20h-4v4q66 103 160 148l24 4h12q93 0 144 -440q64 -299 132 -420q32 -72 88 -72q16 0 16 -8q-61 -110 -188 -172h-8q-34 0 -60 112q-48 103 -108 336q-77 -32 -108 -32h-36q-100 0 -100 44h-4q-96 -329 -116 -344 q0 -6 -24 -24h-12zM228 496h4q83 36 120 36h12q26 0 80 -4v4q-32 209 -60 344q-10 -4 -116 -268zM292 1488l291 297q35 35 55.5 47t40.5 12q33 0 53.5 -20t20.5 -51q0 -22 -15.5 -42t-46.5 -40l-330 -203h-69z" />
<glyph unicode="&#xc2;" horiz-adv-x="862" d="M64 92v4q138 484 304 816q-20 64 -56 64q-4 0 -56 -20h-4v4q66 103 160 148l24 4h12q93 0 144 -440q64 -299 132 -420q32 -72 88 -72q16 0 16 -8q-61 -110 -188 -172h-8q-34 0 -60 112q-48 103 -108 336q-77 -32 -108 -32h-36q-100 0 -100 44h-4q-96 -329 -116 -344 q0 -6 -24 -24h-12zM155 1489l232 355h118l232 -355h-58l-233 216l-233 -216h-58zM228 496h4q83 36 120 36h12q26 0 80 -4v4q-32 209 -60 344q-10 -4 -116 -268z" />
<glyph unicode="&#xc3;" horiz-adv-x="862" d="M64 92v4q138 484 304 816q-20 64 -56 64q-4 0 -56 -20h-4v4q66 103 160 148l24 4h12q93 0 144 -440q64 -299 132 -420q32 -72 88 -72q16 0 16 -8q-61 -110 -188 -172h-8q-34 0 -60 112q-48 103 -108 336q-77 -32 -108 -32h-36q-100 0 -100 44h-4q-96 -329 -116 -344 q0 -6 -24 -24h-12zM159 1542q19 106 68 158.5t129 52.5q46 -1 113 -24q64 -23 112 -23h4q36 0 58 20t36 66h54q-20 -103 -68.5 -154t-126.5 -51h-4q-50 0 -113 23q-66 24 -114 24q-39 0 -60.5 -20.5t-33.5 -71.5h-54zM228 496h4q83 36 120 36h12q26 0 80 -4v4 q-32 209 -60 344q-10 -4 -116 -268z" />
<glyph unicode="&#xc4;" horiz-adv-x="862" d="M64 92v4q138 484 304 816q-20 64 -56 64q-4 0 -56 -20h-4v4q66 103 160 148l24 4h12q93 0 144 -440q64 -299 132 -420q32 -72 88 -72q16 0 16 -8q-61 -110 -188 -172h-8q-34 0 -60 112q-48 103 -108 336q-77 -32 -108 -32h-36q-100 0 -100 44h-4q-96 -329 -116 -344 q0 -6 -24 -24h-12zM156 1673q0 13 14 26l71 72q13 12 25 12q11 0 27 -14l69 -73q10 -14 10 -25q0 -13 -12 -27l-69 -75q-17 -17 -25 -17q-14 0 -25 12l-76 86q-9 12 -9 23zM228 496h4q83 36 120 36h12q26 0 80 -4v4q-32 209 -60 344q-10 -4 -116 -268zM521 1673q0 13 14 26 l71 72q13 12 25 12q11 0 27 -13l69 -74q10 -14 10 -25q0 -13 -12 -26l-69 -76q-17 -17 -25 -17q-14 0 -25 12l-76 87q-9 11 -9 22z" />
<glyph unicode="&#xc5;" horiz-adv-x="862" d="M64 92v4q138 484 304 816q-20 64 -56 64q-4 0 -56 -20h-4v4q66 103 160 148l24 4h12q93 0 144 -440q64 -299 132 -420q32 -72 88 -72q16 0 16 -8q-61 -110 -188 -172h-8q-34 0 -60 112q-48 103 -108 336q-77 -32 -108 -32h-36q-100 0 -100 44h-4q-96 -329 -116 -344 q0 -6 -24 -24h-12zM228 496h4q83 36 120 36h12q26 0 80 -4v4q-32 209 -60 344q-10 -4 -116 -268zM269 1667q0 75 51 126t125 51q76 0 127.5 -51.5t51.5 -125.5q0 -75 -51.5 -126.5t-127.5 -51.5q-74 0 -125 51.5t-51 126.5zM345 1667q0 -42 29 -71t71 -29t71 29t29 71 q0 40 -29.5 69.5t-70.5 29.5t-70.5 -29.5t-29.5 -69.5z" />
<glyph unicode="&#xc6;" horiz-adv-x="1333" d="M64 92v4q138 484 304 816q-20 64 -56 64q-4 0 -56 -20h-4v4q66 103 160 148l24 4h12q93 0 144 -440q64 -299 132 -420q32 -72 88 -72q16 0 16 -8q-61 -110 -188 -172h-8q-34 0 -60 112q-48 103 -108 336q-77 -32 -108 -32h-36q-100 0 -100 44h-4q-96 -329 -116 -344 q0 -6 -24 -24h-12zM228 496h4q83 36 120 36h12q26 0 80 -4v4q-32 209 -60 344q-10 -4 -116 -268zM432 348q0 244 228 488q153 156 288 156h28q236 -14 236 -36v-4q0 -11 -64 -84q-26 -53 -76 -100h-8v8q0 11 28 64h-4q-22 -8 -124 -8h-132q-129 0 -160 -60 q-80 -159 -80 -196h4l36 8q227 -12 276 -12q106 0 300 12l12 -16v-12q-97 -116 -232 -116q-63 0 -408 40q0 4 -4 4v-36q0 -134 164 -236q110 -44 192 -44h40q118 0 216 108l28 20q8 -1 8 -8q-80 -128 -228 -224q-104 -64 -176 -64h-20q-274 0 -356 268q-8 21 -12 80z" />
<glyph unicode="&#xc7;" horiz-adv-x="1088" d="M123 285v51q0 331 392 611q95 61 173 61h10q72 0 72 -20q0 -44 -117 -132q-11 0 -11 15h-35q-257 0 -326 -290q-15 -52 -15 -118v-10q0 -181 178 -244q81 -26 148 -26h25q215 0 387 204q32 31 51 31q5 -10 5 -16q-169 -280 -484 -392q-47 -10 -97 -10q-268 0 -346 199 q-10 40 -10 86zM388 -290q85 -52 152 -52q66 0 94.5 21.5t28.5 66.5t-49 64q-40 16 -102 16q-16 0 -34 -2l48 176h63l-37 -104q32 4 62 5q86 0 134 -40.5t48 -113.5q0 -76 -58.5 -120.5t-160.5 -44.5q-109 0 -189 32v96z" />
<glyph unicode="&#xc8;" horiz-adv-x="1024" d="M123 348q0 244 228 488q153 156 288 156h28q236 -14 236 -36v-4q0 -11 -64 -84q-26 -53 -76 -100h-8v8q0 11 28 64h-4q-22 -8 -124 -8h-132q-129 0 -160 -60q-80 -159 -80 -196h4l36 8q227 -12 276 -12q106 0 300 12l12 -16v-12q-97 -116 -232 -116q-63 0 -408 40 q0 4 -4 4v-36q0 -134 164 -236q110 -44 192 -44h40q118 0 216 108l28 20q8 -1 8 -8q-80 -128 -228 -224q-104 -64 -176 -64h-20q-274 0 -356 268q-8 21 -12 80zM212 1773q0 31 20.5 51t53.5 20q20 0 40.5 -12t55.5 -47l291 -296h-69l-330 202q-31 20 -46.5 40t-15.5 42z" />
<glyph unicode="&#xc9;" horiz-adv-x="1024" d="M123 348q0 244 228 488q153 156 288 156h28q236 -14 236 -36v-4q0 -11 -64 -84q-26 -53 -76 -100h-8v8q0 11 28 64h-4q-22 -8 -124 -8h-132q-129 0 -160 -60q-80 -159 -80 -196h4l36 8q227 -12 276 -12q106 0 300 12l12 -16v-12q-97 -116 -232 -116q-63 0 -408 40 q0 4 -4 4v-36q0 -134 164 -236q110 -44 192 -44h40q118 0 216 108l28 20q8 -1 8 -8q-80 -128 -228 -224q-104 -64 -176 -64h-20q-274 0 -356 268q-8 21 -12 80zM365 1488l291 297q35 35 55.5 47t40.5 12q33 0 53.5 -20t20.5 -51q0 -22 -15.5 -42t-46.5 -40l-330 -203h-69z " />
<glyph unicode="&#xca;" horiz-adv-x="1024" d="M123 348q0 244 228 488q153 156 288 156h28q236 -14 236 -36v-4q0 -11 -64 -84q-26 -53 -76 -100h-8v8q0 11 28 64h-4q-22 -8 -124 -8h-132q-129 0 -160 -60q-80 -159 -80 -196h4l36 8q227 -12 276 -12q106 0 300 12l12 -16v-12q-97 -116 -232 -116q-63 0 -408 40 q0 4 -4 4v-36q0 -134 164 -236q110 -44 192 -44h40q118 0 216 108l28 20q8 -1 8 -8q-80 -128 -228 -224q-104 -64 -176 -64h-20q-274 0 -356 268q-8 21 -12 80zM228 1489l232 355h118l232 -355h-58l-233 216l-233 -216h-58z" />
<glyph unicode="&#xcb;" horiz-adv-x="1024" d="M123 348q0 244 228 488q153 156 288 156h28q236 -14 236 -36v-4q0 -11 -64 -84q-26 -53 -76 -100h-8v8q0 11 28 64h-4q-22 -8 -124 -8h-132q-129 0 -160 -60q-80 -159 -80 -196h4l36 8q227 -12 276 -12q106 0 300 12l12 -16v-12q-97 -116 -232 -116q-63 0 -408 40 q0 4 -4 4v-36q0 -134 164 -236q110 -44 192 -44h40q118 0 216 108l28 20q8 -1 8 -8q-80 -128 -228 -224q-104 -64 -176 -64h-20q-274 0 -356 268q-8 21 -12 80zM229 1673q0 13 14 26l71 72q13 12 25 12q11 0 27 -14l69 -73q10 -14 10 -25q0 -13 -12 -27l-69 -75 q-17 -17 -25 -17q-14 0 -25 12l-76 86q-9 12 -9 23zM594 1673q0 13 14 26l71 72q13 12 25 12q11 0 27 -13l69 -74q10 -14 10 -25q0 -13 -12 -26l-69 -76q-17 -17 -25 -17q-14 0 -25 12l-76 87q-9 11 -9 22z" />
<glyph unicode="&#xcc;" horiz-adv-x="500" d="M-63 1773q0 31 20.5 51t53.5 20q20 0 40.5 -12t55.5 -47l291 -296h-69l-330 202q-31 20 -46.5 40t-15.5 42zM140 8q48 210 48 792q3 0 16 120q-24 13 -24 44q0 14 140 84h16q6 0 12 -16q-24 -142 -24 -696q-12 -152 -24 -172q12 0 12 -8v-8q-129 -148 -168 -148z" />
<glyph unicode="&#xcd;" horiz-adv-x="500" d="M-2 1104l291 297q35 35 55.5 47t40.5 12q33 0 53.5 -20t20.5 -51q0 -22 -15.5 -42t-46.5 -40l-330 -203h-69zM140 8q48 210 48 792q3 0 16 120q-24 13 -24 44q0 14 140 84h16q6 0 12 -16q-24 -142 -24 -696q-12 -152 -24 -172q12 0 12 -8v-8q-129 -148 -168 -148z" />
<glyph unicode="&#xce;" horiz-adv-x="500" d="M-19 1079l232 355h118l232 -355h-58l-233 216l-233 -216h-58zM140 8q48 210 48 792q3 0 16 120q-24 13 -24 44q0 14 140 84h16q6 0 12 -16q-24 -142 -24 -696q-12 -152 -24 -172q12 0 12 -8v-8q-129 -148 -168 -148z" />
<glyph unicode="&#xcf;" horiz-adv-x="500" d="M-46 1673q0 13 14 26l71 72q13 12 25 12q11 0 27 -14l69 -73q10 -14 10 -25q0 -13 -12 -27l-69 -75q-17 -17 -25 -17q-14 0 -25 12l-76 86q-9 12 -9 23zM140 8q48 210 48 792q3 0 16 120q-24 13 -24 44q0 14 140 84h16q6 0 12 -16q-24 -142 -24 -696q-12 -152 -24 -172 q12 0 12 -8v-8q-129 -148 -168 -148zM319 1673q0 13 14 26l71 72q13 12 25 12q11 0 27 -13l69 -74q10 -14 10 -25q0 -13 -12 -26l-69 -76q-17 -17 -25 -17q-14 0 -25 12l-76 87q-9 11 -9 22z" />
<glyph unicode="&#xd0;" horiz-adv-x="1028" d="M82 100q0 23 156 384q104 220 304 496v4h-4q-20 0 -48 4q-34 0 -280 -40h-20q-21 0 -28 16v12q82 216 100 216h4q8 0 8 -12q-8 -63 -8 -84q7 -16 28 -16h20q232 44 292 44q10 0 60 -4q9 15 32 28h8v-8l-16 -24v-4q69 0 172 -112q68 -110 68 -280q0 -420 -436 -656 q-131 -64 -236 -64h-24q-152 22 -152 100zM82 566v60h1024v-60h-1024zM190 216l100 -56q50 -16 84 -16q167 0 324 116q108 142 108 372q0 276 -228 340q-182 -252 -324 -580z" />
<glyph unicode="&#xd1;" horiz-adv-x="1184" d="M96 968v4q57 92 128 92q66 60 84 60l4 -8q-8 -16 -16 -60q15 8 32 8q117 0 368 -524q50 -92 204 -276l-16 560v28q0 53 4 136q-18 48 -52 48v8q53 94 168 152h12v-4q-32 -215 -32 -312v-92q0 -565 32 -652q0 -32 -120 -128l-20 -8q-48 0 -156 184q-129 185 -260 472 q-88 171 -172 264h-4l-4 -8q0 -32 -4 -232q0 -67 20 -468v-20q-17 -69 -124 -136h-8q0 4 -4 4q4 204 4 300v240q0 283 32 400q-52 -32 -80 -32h-20zM269 1542q19 106 68 158.5t129 52.5q46 -1 113 -24q64 -23 112 -23h4q36 0 58 20t36 66h54q-20 -103 -68.5 -154t-126.5 -51 h-4q-50 0 -113 23q-66 24 -114 24q-39 0 -60.5 -20.5t-33.5 -71.5h-54z" />
<glyph unicode="&#xd2;" horiz-adv-x="1059" d="M123 332q0 188 180 376l-4 8v8q35 53 196 188q96 56 160 56h4q185 0 248 -192q20 -79 28 -200q0 -336 -340 -544q-76 -32 -136 -32q-260 0 -328 260zM222 1773q0 31 20.5 51t53.5 20q20 0 40.5 -12t55.5 -47l291 -296h-69l-330 202q-31 20 -46.5 40t-15.5 42zM247 444 q0 -129 120 -232q91 -64 216 -64q152 17 152 76q36 93 36 192v28q-11 292 -168 352q-36 16 -92 24q-34 0 -76 -48q-62 -22 -132 -112q-56 -110 -56 -208v-8z" />
<glyph unicode="&#xd3;" horiz-adv-x="1059" d="M123 332q0 188 180 376l-4 8v8q35 53 196 188q96 56 160 56h4q185 0 248 -192q20 -79 28 -200q0 -336 -340 -544q-76 -32 -136 -32q-260 0 -328 260zM247 444q0 -129 120 -232q91 -64 216 -64q152 17 152 76q36 93 36 192v28q-11 292 -168 352q-36 16 -92 24 q-34 0 -76 -48q-62 -22 -132 -112q-56 -110 -56 -208v-8zM375 1488l291 297q35 35 55.5 47t40.5 12q33 0 53.5 -20t20.5 -51q0 -22 -15.5 -42t-46.5 -40l-330 -203h-69z" />
<glyph unicode="&#xd4;" horiz-adv-x="1059" d="M123 332q0 188 180 376l-4 8v8q35 53 196 188q96 56 160 56h4q185 0 248 -192q20 -79 28 -200q0 -336 -340 -544q-76 -32 -136 -32q-260 0 -328 260zM238 1489l232 355h118l232 -355h-58l-233 216l-233 -216h-58zM247 444q0 -129 120 -232q91 -64 216 -64q152 17 152 76 q36 93 36 192v28q-11 292 -168 352q-36 16 -92 24q-34 0 -76 -48q-62 -22 -132 -112q-56 -110 -56 -208v-8z" />
<glyph unicode="&#xd5;" horiz-adv-x="1059" d="M123 332q0 188 180 376l-4 8v8q35 53 196 188q96 56 160 56h4q185 0 248 -192q20 -79 28 -200q0 -336 -340 -544q-76 -32 -136 -32q-260 0 -328 260zM242 1542q19 106 68 158.5t129 52.5q46 -1 113 -24q64 -23 112 -23h4q36 0 58 20t36 66h54q-20 -103 -68.5 -154 t-126.5 -51h-4q-50 0 -113 23q-66 24 -114 24q-39 0 -60.5 -20.5t-33.5 -71.5h-54zM247 444q0 -129 120 -232q91 -64 216 -64q152 17 152 76q36 93 36 192v28q-11 292 -168 352q-36 16 -92 24q-34 0 -76 -48q-62 -22 -132 -112q-56 -110 -56 -208v-8z" />
<glyph unicode="&#xd6;" horiz-adv-x="1059" d="M123 332q0 188 180 376l-4 8v8q35 53 196 188q96 56 160 56h4q185 0 248 -192q20 -79 28 -200q0 -336 -340 -544q-76 -32 -136 -32q-260 0 -328 260zM239 1673q0 13 14 26l71 72q13 12 25 12q11 0 27 -14l69 -73q10 -14 10 -25q0 -13 -12 -27l-69 -75q-17 -17 -25 -17 q-14 0 -25 12l-76 86q-9 12 -9 23zM247 444q0 -129 120 -232q91 -64 216 -64q152 17 152 76q36 93 36 192v28q-11 292 -168 352q-36 16 -92 24q-34 0 -76 -48q-62 -22 -132 -112q-56 -110 -56 -208v-8zM604 1673q0 13 14 26l71 72q13 12 25 12q11 0 27 -13l69 -74 q10 -14 10 -25q0 -13 -12 -26l-69 -76q-17 -17 -25 -17q-14 0 -25 12l-76 87q-9 11 -9 22z" />
<glyph unicode="&#xd7;" horiz-adv-x="971" d="M77 647v140h350v369l1 1h139v-370h349l1 -1v-139h-350v-370h-140v370h-350z" />
<glyph unicode="&#xd8;" horiz-adv-x="1059" d="M123 332q0 188 180 376l-4 8v8q35 53 196 188q96 56 160 56h4q185 0 248 -192q20 -79 28 -200q0 -336 -340 -544q-76 -32 -136 -32q-260 0 -328 260zM223 -231l541 1484h80l-541 -1484h-80zM247 444q0 -129 120 -232q91 -64 216 -64q152 17 152 76q36 93 36 192v28 q-11 292 -168 352q-36 16 -92 24q-34 0 -76 -48q-62 -22 -132 -112q-56 -110 -56 -208v-8z" />
<glyph unicode="&#xd9;" horiz-adv-x="1056" d="M-185 813q27 56 177 124q57 20 120 20h4q59 0 180 -4l4 -8v-8q-71 -72 -79 -272q-9 -385 101 -484q51 -28 91 -28h20q181 0 316 300q-1 80 1 120l7 180q2 60 2 164q83 112 124 112q7 -87 0 -512q41 -496 129 -496q8 4 12 4l4 -8q-54 -90 -153 -124h-12q-82 0 -110 456 q-253 -316 -421 -316h-20q-139 0 -166 236q-22 268 -18 376l2 40q3 76 33 136q-180 44 -202 44q-45 0 -142 -60zM114 1773q0 31 20.5 51t53.5 20q20 0 40.5 -12t55.5 -47l291 -296h-69l-330 202q-31 20 -46.5 40t-15.5 42z" />
<glyph unicode="&#xda;" horiz-adv-x="1056" d="M-185 813q27 56 177 124q57 20 120 20h4q59 0 180 -4l4 -8v-8q-71 -72 -79 -272q-9 -385 101 -484q51 -28 91 -28h20q181 0 316 300q-1 80 1 120l7 180q2 60 2 164q83 112 124 112q7 -87 0 -512q41 -496 129 -496q8 4 12 4l4 -8q-54 -90 -153 -124h-12q-82 0 -110 456 q-253 -316 -421 -316h-20q-139 0 -166 236q-22 268 -18 376l2 40q3 76 33 136q-180 44 -202 44q-45 0 -142 -60zM268 1488l291 297q35 35 55.5 47t40.5 12q33 0 53.5 -20t20.5 -51q0 -22 -15.5 -42t-46.5 -40l-330 -203h-69z" />
<glyph unicode="&#xdb;" horiz-adv-x="1056" d="M-185 813q27 56 177 124q57 20 120 20h4q59 0 180 -4l4 -8v-8q-71 -72 -79 -272q-9 -385 101 -484q51 -28 91 -28h20q181 0 316 300q-1 80 1 120l7 180q2 60 2 164q83 112 124 112q7 -87 0 -512q41 -496 129 -496q8 4 12 4l4 -8q-54 -90 -153 -124h-12q-82 0 -110 456 q-253 -316 -421 -316h-20q-139 0 -166 236q-22 268 -18 376l2 40q3 76 33 136q-180 44 -202 44q-45 0 -142 -60zM131 1489l232 355h118l232 -355h-58l-233 216l-233 -216h-58z" />
<glyph unicode="&#xdc;" horiz-adv-x="1056" d="M-185 813q27 56 177 124q57 20 120 20h4q59 0 180 -4l4 -8v-8q-71 -72 -79 -272q-9 -385 101 -484q51 -28 91 -28h20q181 0 316 300q-1 80 1 120l7 180q2 60 2 164q83 112 124 112q7 -87 0 -512q41 -496 129 -496q8 4 12 4l4 -8q-54 -90 -153 -124h-12q-82 0 -110 456 q-253 -316 -421 -316h-20q-139 0 -166 236q-22 268 -18 376l2 40q3 76 33 136q-180 44 -202 44q-45 0 -142 -60zM131 1673q0 13 14 26l71 72q13 12 25 12q11 0 27 -14l69 -73q10 -14 10 -25q0 -13 -12 -27l-69 -75q-17 -17 -25 -17q-14 0 -25 12l-76 86q-9 12 -9 23z M496 1673q0 13 14 26l71 72q13 12 25 12q11 0 27 -13l69 -74q10 -14 10 -25q0 -13 -12 -26l-69 -76q-17 -17 -25 -17q-14 0 -25 12l-76 87q-9 11 -9 22z" />
<glyph unicode="&#xdd;" horiz-adv-x="866" d="M-81 938q6 49 139 140h16q100 0 292 -356q123 -218 127 -264l213 320q95 137 91 196q-3 43 -93 124l-1 12q63 92 98 92q101 -72 105 -132q6 -90 -282 -484q-217 -360 -244 -520v-4q3 -38 83 -156v-4q-48 -100 -127 -132h-4q-25 0 -69 140l-2 24q-3 40 129 336h-4 q-15 20 -102 248q-229 444 -283 456l-21 8q-46 -48 -60 -48zM282 1488l291 297q35 35 55.5 47t40.5 12q33 0 53.5 -20t20.5 -51q0 -22 -15.5 -42t-46.5 -40l-330 -203h-69z" />
<glyph unicode="&#xde;" horiz-adv-x="983" d="M112 880v4q60 96 112 96q86 56 96 56q12 -4 12 -24q0 -57 -8 -200h4q196 176 332 176h24q148 0 224 -152q24 -81 24 -144v-32q0 -151 -232 -316q-119 -84 -316 -84h-60v-4q-12 -357 -12 -480q-21 -66 -92 -116l-8 4q3 24 8 24q0 8 -4 8q-4 172 -4 212q0 200 -4 800 l12 216h-4q-66 -44 -96 -44h-8zM140 8q48 210 48 792q3 0 16 120q-24 13 -24 44q0 14 140 84h16q6 0 12 -16q-24 -142 -24 -696q-12 -152 -24 -172q12 0 12 -8v-8q-129 -148 -168 -148zM324 336h4q352 28 396 84q72 23 72 92v8q0 141 -56 260q-81 108 -188 108h-12 q-110 0 -216 -104v-448z" />
<glyph unicode="&#xdf;" horiz-adv-x="771" d="M-96 405q-1 5 2 10l6 10l2 2q9 13 21 24q15 16 34 28q6 5 12 3q2 -1 3 -2h1q56 40 110 83q4 54 11 109q17 143 53 283q46 185 166 333q40 47 88 87q34 31 75 52q3 1 6 3q33 17 68 23q10 1 21 1q22 0 42 -11q20 -13 31 -34q7 -17 10 -34q7 -37 2 -74q-14 -84 -54 -159 q-43 -81 -96 -155q-4 -7 -9 -13q-32 -49 -68 -95q-31 -40 -64 -80q5 4 10 7q14 12 32 19q22 5 44 5q19 0 37 -6q45 -18 82 -50q71 -61 109 -147q41 -98 53 -203q8 -53 0 -106q-9 -49 -32 -93q-32 -58 -76 -108q-28 -33 -61 -61q-23 -22 -48 -40l-8 -6q-21 -14 -43 -25 q-5 -3 -10 -5q-17 -9 -35 -15q-35 -10 -69 0q-38 15 -60.5 47.5t-29.5 72.5q-3 20 -3 41q1 30 17 55q16 24 38 42l4.5 3.5t10 8t10 6.5t6.5 -1q3 -8 7 -16q4 -7 7 -14q1 -2 2 -5l10 -22q17 -39 49 -68q27 -23 62 -30q29 -1 56 10q13 6 25 13q6 10 11 19q16 39 20 81 q2 38 -2 76q-8 71 -31 138q-19 61 -51 115q-33 54 -81 93q-44 39 -99 54q-24 0 -48 -5q-8 -1 -9 3t1 10q-17 -18 -35 -36q-1 -35 -1 -70q-1 -105 0 -209v-50q2 -131 0 -263l-2 -64q-1 -5 -1 -9q0 -50 -10 -99q-5 -27 -18 -52q-10 -17 -22 -33q-30 -39 -67 -72 q-19 -18 -41 -33q-37 -24 -78 -42q-11 -9 -23 -6q0 4 -1 8q7 19 19 33q28 38 64 68l12 10q3 29 3 57q0 13 1 26v25l2 74v19v122v52q1 132 3 263q0 53 3 106q-36 -30 -74 -57q-4 -3 -7 -5q-27 -19 -54 -37q-1 0 -2 -1q-10 -7 -22 -13q-7 -4 -15 -7q-2 -1 -3 -1q-5 -1 -9 2 q-1 4 -2 7zM251 707q29 34 57 68q32 41 63 83q27 38 53 77q47 70 84 146q34 75 32 157q-2 16 -7 33t-17 29v1q-6 6 -13.5 12t-15.5 8q-11 4 -22 5q2 -1 4 -1h3q-34 0 -66 -14q-7 -3 -14 -7q-2 -3 -4 -5q-26 -43 -47 -89q-44 -115 -63 -238q-4 -22 -7 -44q0 -6 -1 -11 q-1 -9 -3 -17q-3 -19 -5 -38q-1 -8 -1 -16q-6 -59 -9 -117q-1 -11 -1 -22zM377 1293q3 3 7 6q-4 -3 -7 -6zM394 1306v1q1 0 2 1zM396 1310h1h-1z" />
<glyph unicode="&#xe0;" horiz-adv-x="956" d="M100 212v12q0 230 356 444q100 52 168 52q107 0 132 -140q68 -275 132 -436q-30 -71 -132 -140q-7 -4 -16 -4q-28 48 -104 252q-85 -81 -280 -188q-67 -24 -104 -24h-16q-89 0 -124 92q-12 29 -12 80zM187 1363q0 31 20.5 51t53.5 20q20 0 40.5 -12t55.5 -47l291 -296 h-69l-330 202q-31 20 -46.5 40t-15.5 42zM264 324q15 -140 120 -140q80 0 236 104q-67 228 -116 228q-3 10 -52 16q-172 -29 -172 -88q-16 -56 -16 -120z" />
<glyph unicode="&#xe1;" horiz-adv-x="956" d="M100 212v12q0 230 356 444q100 52 168 52q107 0 132 -140q68 -275 132 -436q-30 -71 -132 -140q-7 -4 -16 -4q-28 48 -104 252q-85 -81 -280 -188q-67 -24 -104 -24h-16q-89 0 -124 92q-12 29 -12 80zM264 324q15 -140 120 -140q80 0 236 104q-67 228 -116 228 q-3 10 -52 16q-172 -29 -172 -88q-16 -56 -16 -120zM340 1078l291 297q35 35 55.5 47t40.5 12q33 0 53.5 -20t20.5 -51q0 -22 -15.5 -42t-46.5 -40l-330 -203h-69z" />
<glyph unicode="&#xe2;" horiz-adv-x="956" d="M100 212v12q0 230 356 444q100 52 168 52q107 0 132 -140q68 -275 132 -436q-30 -71 -132 -140q-7 -4 -16 -4q-28 48 -104 252q-85 -81 -280 -188q-67 -24 -104 -24h-16q-89 0 -124 92q-12 29 -12 80zM203 1079l232 355h118l232 -355h-58l-233 216l-233 -216h-58z M264 324q15 -140 120 -140q80 0 236 104q-67 228 -116 228q-3 10 -52 16q-172 -29 -172 -88q-16 -56 -16 -120z" />
<glyph unicode="&#xe3;" horiz-adv-x="956" d="M100 212v12q0 230 356 444q100 52 168 52q107 0 132 -140q68 -275 132 -436q-30 -71 -132 -140q-7 -4 -16 -4q-28 48 -104 252q-85 -81 -280 -188q-67 -24 -104 -24h-16q-89 0 -124 92q-12 29 -12 80zM207 1132q19 106 68 158.5t129 52.5q46 -1 113 -24q64 -23 112 -23h4 q36 0 58 20t36 66h54q-20 -103 -68.5 -154t-126.5 -51h-4q-50 0 -113 23q-66 24 -114 24q-39 0 -60.5 -20.5t-33.5 -71.5h-54zM264 324q15 -140 120 -140q80 0 236 104q-67 228 -116 228q-3 10 -52 16q-172 -29 -172 -88q-16 -56 -16 -120z" />
<glyph unicode="&#xe4;" horiz-adv-x="956" d="M100 212v12q0 230 356 444q100 52 168 52q107 0 132 -140q68 -275 132 -436q-30 -71 -132 -140q-7 -4 -16 -4q-28 48 -104 252q-85 -81 -280 -188q-67 -24 -104 -24h-16q-89 0 -124 92q-12 29 -12 80zM204 1263q0 13 14 26l71 72q13 12 25 12q11 0 27 -14l69 -73 q10 -14 10 -25q0 -13 -12 -27l-69 -75q-17 -17 -25 -17q-14 0 -25 12l-76 86q-9 12 -9 23zM264 324q15 -140 120 -140q80 0 236 104q-67 228 -116 228q-3 10 -52 16q-172 -29 -172 -88q-16 -56 -16 -120zM569 1263q0 13 14 26l71 72q13 12 25 12q11 0 27 -13l69 -74 q10 -14 10 -25q0 -13 -12 -26l-69 -76q-17 -17 -25 -17q-14 0 -25 12l-76 87q-9 11 -9 22z" />
<glyph unicode="&#xe5;" horiz-adv-x="956" d="M100 212v12q0 230 356 444q100 52 168 52q107 0 132 -140q68 -275 132 -436q-30 -71 -132 -140q-7 -4 -16 -4q-28 48 -104 252q-85 -81 -280 -188q-67 -24 -104 -24h-16q-89 0 -124 92q-12 29 -12 80zM264 324q15 -140 120 -140q80 0 236 104q-67 228 -116 228 q-3 10 -52 16q-172 -29 -172 -88q-16 -56 -16 -120zM317 1257q0 75 51 126t125 51q76 0 127.5 -51.5t51.5 -125.5q0 -75 -51.5 -126.5t-127.5 -51.5q-74 0 -125 51.5t-51 126.5zM393 1257q0 -42 29 -71t71 -29t71 29t29 71q0 40 -29.5 69.5t-70.5 29.5t-70.5 -29.5 t-29.5 -69.5z" />
<glyph unicode="&#xe6;" horiz-adv-x="1302" d="M100 212v12q0 230 356 444q100 52 168 52q107 0 132 -140q8 -32 16 -62q47 45 112 92q112 72 188 72q72 -7 72 -64q-69 -183 -268 -288q-35 -13 -47 -15q1 -5 2 -9q91 -92 209 -92h28q79 0 156 72q13 8 20 8q4 -8 4 -12q-51 -88 -184 -180q-62 -44 -136 -62 q-165 -13 -292 212q-85 -81 -280 -188q-67 -24 -104 -24h-16q-89 0 -124 92q-12 29 -12 80zM264 324q15 -140 120 -140q80 0 236 104q-67 228 -116 228q-3 10 -52 16q-172 -29 -172 -88q-16 -56 -16 -120zM793 438q6 -20 11 -40l36 24l20 -4q140 21 140 68q-17 44 -60 44 q-70 0 -136 -48q-9 -19 -11 -44z" />
<glyph unicode="&#xe7;" horiz-adv-x="716" d="M100 204v4q0 229 312 448q75 32 108 32q72 0 96 -48q24 -47 36 -116q-35 -82 -152 -160h-12q-5 0 -36 104q-37 44 -76 44h-8q-72 0 -72 -52q-16 -39 -16 -100q0 -119 144 -172q57 -20 148 -20h80q8 -1 8 -8q-85 -160 -288 -160q-220 0 -264 144q-8 38 -8 60zM176 -290 q85 -52 152 -52q66 0 94.5 21.5t28.5 66.5t-49 64q-40 16 -102 16q-16 0 -34 -2l48 176h63l-37 -104q32 4 62 5q86 0 134 -40.5t48 -113.5q0 -76 -58.5 -120.5t-160.5 -44.5q-109 0 -189 32v96z" />
<glyph unicode="&#xe8;" horiz-adv-x="725" d="M95 1363q0 31 20.5 51t53.5 20q20 0 40.5 -12t55.5 -47l291 -296h-69l-330 202q-31 20 -46.5 40t-15.5 42zM100 228v8q0 143 240 316q113 72 188 72q72 -7 72 -64q-68 -183 -268 -288q-44 -16 -52 -16q93 -100 216 -100h28q80 0 156 72q13 8 20 8q4 -8 4 -12 q-51 -88 -184 -180q-62 -44 -144 -44q-156 0 -256 136q-20 49 -20 92zM248 332l48 32l20 -4q140 21 140 68q-16 44 -60 44q-69 0 -136 -48q-12 -26 -12 -64v-28z" />
<glyph unicode="&#xe9;" horiz-adv-x="725" d="M100 228v8q0 143 240 316q113 72 188 72q72 -7 72 -64q-68 -183 -268 -288q-44 -16 -52 -16q93 -100 216 -100h28q80 0 156 72q13 8 20 8q4 -8 4 -12q-51 -88 -184 -180q-62 -44 -144 -44q-156 0 -256 136q-20 49 -20 92zM248 332l48 32l20 -4q140 21 140 68 q-16 44 -60 44q-69 0 -136 -48q-12 -26 -12 -64v-28zM248 1078l291 297q35 35 55.5 47t40.5 12q33 0 53.5 -20t20.5 -51q0 -22 -15.5 -42t-46.5 -40l-330 -203h-69z" />
<glyph unicode="&#xea;" horiz-adv-x="725" d="M100 228v8q0 143 240 316q113 72 188 72q72 -7 72 -64q-68 -183 -268 -288q-44 -16 -52 -16q93 -100 216 -100h28q80 0 156 72q13 8 20 8q4 -8 4 -12q-51 -88 -184 -180q-62 -44 -144 -44q-156 0 -256 136q-20 49 -20 92zM111 1079l232 355h118l232 -355h-58l-233 216 l-233 -216h-58zM248 332l48 32l20 -4q140 21 140 68q-16 44 -60 44q-69 0 -136 -48q-12 -26 -12 -64v-28z" />
<glyph unicode="&#xeb;" horiz-adv-x="725" d="M100 228v8q0 143 240 316q113 72 188 72q72 -7 72 -64q-68 -183 -268 -288q-44 -16 -52 -16q93 -100 216 -100h28q80 0 156 72q13 8 20 8q4 -8 4 -12q-51 -88 -184 -180q-62 -44 -144 -44q-156 0 -256 136q-20 49 -20 92zM112 1263q0 13 14 26l71 72q13 12 25 12 q11 0 27 -14l69 -73q10 -14 10 -25q0 -13 -12 -27l-69 -75q-17 -17 -25 -17q-14 0 -25 12l-76 86q-9 12 -9 23zM248 332l48 32l20 -4q140 21 140 68q-16 44 -60 44q-69 0 -136 -48q-12 -26 -12 -64v-28zM477 1263q0 13 14 26l71 72q13 12 25 12q11 0 27 -13l69 -74 q10 -14 10 -25q0 -13 -12 -26l-69 -76q-17 -17 -25 -17q-14 0 -25 12l-76 87q-9 11 -9 22z" />
<glyph unicode="&#xec;" horiz-adv-x="550" d="M17 1271q0 31 20.5 51t53.5 20q20 0 40.5 -12t55.5 -47l291 -296h-69l-330 202q-31 20 -46.5 40t-15.5 42zM159 -84q48 210 48 792q3 0 16 120q-24 13 -24 44q0 14 140 84h16q6 0 12 -16q-24 -142 -24 -696q-12 -152 -24 -172q12 0 12 -8v-8q-129 -148 -168 -148z" />
<glyph unicode="&#xed;" horiz-adv-x="550" d="M59 1041l291 297q35 35 55.5 47t40.5 12q33 0 53.5 -20t20.5 -51q0 -22 -15.5 -42t-46.5 -40l-330 -203h-69zM194 -54q48 210 48 792q3 0 16 120q-24 13 -24 44q0 14 140 84h16q6 0 12 -16q-24 -142 -24 -696q-12 -152 -24 -172q12 0 12 -8v-8q-129 -148 -168 -148z" />
<glyph unicode="&#xee;" horiz-adv-x="550" d="M-20 996l232 355h118l232 -355h-58l-233 216l-233 -216h-58zM139 -127q48 210 48 792q3 0 16 120q-24 13 -24 44q0 14 140 84h16q6 0 12 -16q-24 -142 -24 -696q-12 -152 -24 -172q12 0 12 -8v-8q-129 -148 -168 -148z" />
<glyph unicode="&#xef;" horiz-adv-x="550" d="M4 1111q0 13 14 26l71 72q13 12 25 12q11 0 27 -14l69 -73q10 -14 10 -25q0 -13 -12 -27l-69 -75q-17 -17 -25 -17q-14 0 -25 12l-76 86q-9 12 -9 23zM161 -183q48 210 48 792q3 0 16 120q-24 13 -24 44q0 14 140 84h16q6 0 12 -16q-24 -142 -24 -696q-12 -152 -24 -172 q12 0 12 -8v-8q-129 -148 -168 -148zM369 1111q0 13 14 26l71 72q13 12 25 12q11 0 27 -13l69 -74q10 -14 10 -25q0 -13 -12 -26l-69 -76q-17 -17 -25 -17q-14 0 -25 12l-76 87q-9 11 -9 22z" />
<glyph unicode="&#xf0;" horiz-adv-x="709" d="M3 496q-2 9 4 16q6 9 12 17q52 81 110 157q10 12 19 24q27 34 55 67q13 15 27 31q26 31 53 62q14 16 30 31l10 10q23 24 47 47q-31 47 -69 89q-3 2 -5 5q-23 27 -51 50q-27 21 -58 35q-4 2 1 10.5t13.5 19t16 19t8.5 9.5q19 21 43 35q5 4 11 4h4q44 -19 78 -52t63 -70 q23 -28 43 -58l16 14q88 78 178 153q16 14 34 25l4 2q4 2 8 3q2 1 3 1q6 0 4 -8q-5 -15 -15 -28q-8 -9 -15 -18q-18 -20 -38 -38q-81 -67 -160 -137q27 -43 48 -90q31 -72 55 -147l8 -26q11 6 21 11q1 0 2 1q2 1 5 2t4.5 0t1.5 -5q-3 -9 -10 -18t-16 -19q10 -37 18 -74 q2 -12 4 -23q6 -25 10 -50q5 -42 11 -84q2 -20 3 -41q1 -9 1 -17q4 -45 4 -89q1 -84 -20 -166q-21 -77 -66 -142q-33 -48 -74 -88l-3 -3q-35 -35 -76 -65l-1 -1q-31 -23 -67 -40l-2 -2q-35 -17 -73 -25q-39 -8 -79.5 -3t-74.5 27q-63 43 -84 117q-21 80 -7 160.5t51 153.5 q88 162 225 284q84 77 181 136q-7 21 -13 42q-6 19 -14 38q-4 9 -7 18q-20 54 -47 104q-8 15 -17 30l-11 -11l-42 -42q-65 -75 -128 -151q-60 -78 -117 -158q-20 -25 -44 -46q-13 -12 -28 -21q-7 -6 -16 -4zM141 150q7 -75 54 -132q24 -27 55 -43q32 -17 68 -22q31 -4 63 2 q31 6 62 18q15 7 29 16q13 21 23 43q56 151 47 313q-1 6 -1 13q0 27 -2 54q-4 35 -7 70v1q-1 8 -2 15q-8 55 -20 110q-2 8 -4 17q-3 16 -8 33q-46 -28 -91 -57q-36 -25 -70 -52q-15 -12 -29 -25l-28 -28q-16 -17 -30 -35q-18 -22 -34 -46q-22 -34 -39 -71q-41 -93 -36 -194z " />
<glyph unicode="&#xf1;" horiz-adv-x="882" d="M50 452q0 49 152 172q68 31 116 40h20q70 0 96 -204h4q55 68 120 104q70 36 116 36h20q120 0 120 -292q0 -259 -104 -300q0 -8 -16 -8q-18 0 -44 364q-31 108 -92 108h-4q-84 0 -84 -60q-32 -68 -32 -172q-128 -164 -180 -164q-8 0 -8 8q0 381 -96 392l-100 -32z M145 1132q19 106 68 158.5t129 52.5q46 -1 113 -24q64 -23 112 -23h4q36 0 58 20t36 66h54q-20 -103 -68.5 -154t-126.5 -51h-4q-50 0 -113 23q-66 24 -114 24q-39 0 -60.5 -20.5t-33.5 -71.5h-54z" />
<glyph unicode="&#xf2;" horiz-adv-x="608" d="M13 1363q0 31 20.5 51t53.5 20q20 0 40.5 -12t55.5 -47l291 -296h-69l-330 202q-31 20 -46.5 40t-15.5 42zM60 112v12q0 87 180 260q-40 30 -44 48q36 93 160 168h24q69 -20 176 -200q24 -57 24 -100q0 -122 -224 -280q-58 -20 -84 -20h-40q-172 21 -172 112zM196 248 q27 -92 176 -92h12q20 0 20 8q-10 71 -116 180q-57 -60 -84 -60q-8 -33 -8 -36z" />
<glyph unicode="&#xf3;" horiz-adv-x="608" d="M60 112v12q0 87 180 260q-40 30 -44 48q36 93 160 168h24q69 -20 176 -200q24 -57 24 -100q0 -122 -224 -280q-58 -20 -84 -20h-40q-172 21 -172 112zM166 1078l291 297q35 35 55.5 47t40.5 12q33 0 53.5 -20t20.5 -51q0 -22 -15.5 -42t-46.5 -40l-330 -203h-69zM196 248 q27 -92 176 -92h12q20 0 20 8q-10 71 -116 180q-57 -60 -84 -60q-8 -33 -8 -36z" />
<glyph unicode="&#xf4;" horiz-adv-x="608" d="M29 1079l232 355h118l232 -355h-58l-233 216l-233 -216h-58zM60 112v12q0 87 180 260q-40 30 -44 48q36 93 160 168h24q69 -20 176 -200q24 -57 24 -100q0 -122 -224 -280q-58 -20 -84 -20h-40q-172 21 -172 112zM196 248q27 -92 176 -92h12q20 0 20 8q-10 71 -116 180 q-57 -60 -84 -60q-8 -33 -8 -36z" />
<glyph unicode="&#xf5;" horiz-adv-x="608" d="M33 1132q19 106 68 158.5t129 52.5q46 -1 113 -24q64 -23 112 -23h4q36 0 58 20t36 66h54q-20 -103 -68.5 -154t-126.5 -51h-4q-50 0 -113 23q-66 24 -114 24q-39 0 -60.5 -20.5t-33.5 -71.5h-54zM60 112v12q0 87 180 260q-40 30 -44 48q36 93 160 168h24 q69 -20 176 -200q24 -57 24 -100q0 -122 -224 -280q-58 -20 -84 -20h-40q-172 21 -172 112zM196 248q27 -92 176 -92h12q20 0 20 8q-10 71 -116 180q-57 -60 -84 -60q-8 -33 -8 -36z" />
<glyph unicode="&#xf6;" horiz-adv-x="608" d="M30 1263q0 13 14 26l71 72q13 12 25 12q11 0 27 -14l69 -73q10 -14 10 -25q0 -13 -12 -27l-69 -75q-17 -17 -25 -17q-14 0 -25 12l-76 86q-9 12 -9 23zM60 112v12q0 87 180 260q-40 30 -44 48q36 93 160 168h24q69 -20 176 -200q24 -57 24 -100q0 -122 -224 -280 q-58 -20 -84 -20h-40q-172 21 -172 112zM196 248q27 -92 176 -92h12q20 0 20 8q-10 71 -116 180q-57 -60 -84 -60q-8 -33 -8 -36zM395 1263q0 13 14 26l71 72q13 12 25 12q11 0 27 -13l69 -74q10 -14 10 -25q0 -13 -12 -26l-69 -76q-17 -17 -25 -17q-14 0 -25 12l-76 87 q-9 11 -9 22z" />
<glyph unicode="&#xf7;" d="M330 647v140h839l1 -1v-139h-840zM625 377q0 15 16 31l82 84q15 14 29 14q13 0 31 -16l80 -86q12 -16 12 -29q0 -15 -14 -31l-80 -88q-20 -20 -29 -20q-16 0 -29 14l-88 101q-10 13 -10 26zM625 1070q0 15 16 31l82 84q15 14 29 14q13 0 31 -16l80 -86q12 -16 12 -29 q0 -15 -14 -31l-80 -88q-20 -20 -29 -20q-16 0 -29 14l-88 101q-10 13 -10 26z" />
<glyph unicode="&#xf8;" horiz-adv-x="608" d="M10 -50l541 1484h80l-541 -1484h-80zM60 112v12q0 87 180 260q-40 30 -44 48q36 93 160 168h24q69 -20 176 -200q24 -57 24 -100q0 -122 -224 -280q-58 -20 -84 -20h-40q-172 21 -172 112zM196 248q27 -92 176 -92h12q20 0 20 8q-10 71 -116 180q-57 -60 -84 -60 q-8 -33 -8 -36z" />
<glyph unicode="&#xf9;" horiz-adv-x="932" d="M92 456q0 48 156 176q60 24 76 24h4q52 0 52 -140v-68q0 -38 -4 -92q0 -128 92 -128q79 0 160 72q31 44 112 212q71 68 80 68h4q8 -1 8 -8q-20 -120 -20 -176q0 -148 52 -244q-33 -82 -144 -152h-8q-40 0 -40 84q0 47 12 192q-258 -252 -392 -252h-12q-104 0 -104 132 q8 127 8 204q0 76 -36 104q-39 -16 -48 -16q-8 0 -8 8zM171 1363q0 31 20.5 51t53.5 20q20 0 40.5 -12t55.5 -47l291 -296h-69l-330 202q-31 20 -46.5 40t-15.5 42z" />
<glyph unicode="&#xfa;" horiz-adv-x="932" d="M92 456q0 48 156 176q60 24 76 24h4q52 0 52 -140v-68q0 -38 -4 -92q0 -128 92 -128q79 0 160 72q31 44 112 212q71 68 80 68h4q8 -1 8 -8q-20 -120 -20 -176q0 -148 52 -244q-33 -82 -144 -152h-8q-40 0 -40 84q0 47 12 192q-258 -252 -392 -252h-12q-104 0 -104 132 q8 127 8 204q0 76 -36 104q-39 -16 -48 -16q-8 0 -8 8zM324 1078l291 297q35 35 55.5 47t40.5 12q33 0 53.5 -20t20.5 -51q0 -22 -15.5 -42t-46.5 -40l-330 -203h-69z" />
<glyph unicode="&#xfb;" horiz-adv-x="932" d="M92 456q0 48 156 176q60 24 76 24h4q52 0 52 -140v-68q0 -38 -4 -92q0 -128 92 -128q79 0 160 72q31 44 112 212q71 68 80 68h4q8 -1 8 -8q-20 -120 -20 -176q0 -148 52 -244q-33 -82 -144 -152h-8q-40 0 -40 84q0 47 12 192q-258 -252 -392 -252h-12q-104 0 -104 132 q8 127 8 204q0 76 -36 104q-39 -16 -48 -16q-8 0 -8 8zM187 1079l232 355h118l232 -355h-58l-233 216l-233 -216h-58z" />
<glyph unicode="&#xfc;" horiz-adv-x="932" d="M92 456q0 48 156 176q60 24 76 24h4q52 0 52 -140v-68q0 -38 -4 -92q0 -128 92 -128q79 0 160 72q31 44 112 212q71 68 80 68h4q8 -1 8 -8q-20 -120 -20 -176q0 -148 52 -244q-33 -82 -144 -152h-8q-40 0 -40 84q0 47 12 192q-258 -252 -392 -252h-12q-104 0 -104 132 q8 127 8 204q0 76 -36 104q-39 -16 -48 -16q-8 0 -8 8zM188 1263q0 13 14 26l71 72q13 12 25 12q11 0 27 -14l69 -73q10 -14 10 -25q0 -13 -12 -27l-69 -75q-17 -17 -25 -17q-14 0 -25 12l-76 86q-9 12 -9 23zM553 1263q0 13 14 26l71 72q13 12 25 12q11 0 27 -13l69 -74 q10 -14 10 -25q0 -13 -12 -26l-69 -76q-17 -17 -25 -17q-14 0 -25 12l-76 87q-9 11 -9 22z" />
<glyph unicode="&#xfd;" horiz-adv-x="663" d="M-156 481q89 144 204 144h8q97 0 116 -392v-12q169 231 284 360q84 88 116 88q56 -56 96 -160q8 -15 8 -32v-16q0 -23 -124 -256q-87 -163 -140 -360q-48 -181 -48 -540q0 -61 -80 -108q-12 12 -12 76v88q0 440 180 796q72 148 72 172q0 38 -84 184h-4 q-199 -293 -304 -408q-54 -48 -76 -48q-14 0 -28 240q-34 200 -92 200h-8q-15 0 -80 -24zM106 1078l291 297q35 35 55.5 47t40.5 12q33 0 53.5 -20t20.5 -51q0 -22 -15.5 -42t-46.5 -40l-330 -203h-69z" />
<glyph unicode="&#xfe;" horiz-adv-x="769" d="M103 -524q36 330 72 848t39 559v44q-2 149 -52 168q-27 -4 -44 -4h-4q-8 0 -8 8q60 113 168 168q34 4 56 4q57 0 68 -192v-16q0 -155 -46 -506q156 123 203 123h16q70 0 184 -144q16 -40 16 -68v-4q0 -172 -264 -376q-81 -44 -144 -44h-16q-28 0 -28 20h-8 q-40 -445 -52 -464q-37 -73 -132 -136h-12q-3 0 -12 12zM315 76h4q0 25 100 108l48 -4q120 16 120 52q16 50 16 84v4q0 78 -160 228h-16q-21 0 -82 -47q-2 -16 -4 -33q2 -20 2 -32q0 -134 -28 -356v-4z" />
<glyph unicode="&#xff;" horiz-adv-x="663" d="M-156 481q89 144 204 144h8q97 0 116 -392v-12q169 231 284 360q84 88 116 88q56 -56 96 -160q8 -15 8 -32v-16q0 -23 -124 -256q-87 -163 -140 -360q-48 -181 -48 -540q0 -61 -80 -108q-12 12 -12 76v88q0 440 180 796q72 148 72 172q0 38 -84 184h-4 q-199 -293 -304 -408q-54 -48 -76 -48q-14 0 -28 240q-34 200 -92 200h-8q-15 0 -80 -24zM-30 1263q0 13 14 26l71 72q13 12 25 12q11 0 27 -14l69 -73q10 -14 10 -25q0 -13 -12 -27l-69 -75q-17 -17 -25 -17q-14 0 -25 12l-76 86q-9 12 -9 23zM335 1263q0 13 14 26l71 72 q13 12 25 12q11 0 27 -13l69 -74q10 -14 10 -25q0 -13 -12 -26l-69 -76q-17 -17 -25 -17q-14 0 -25 12l-76 87q-9 11 -9 22z" />
<glyph unicode="&#x2c6;" d="M459 1079l232 355h118l232 -355h-58l-233 216l-233 -216h-58z" />
<glyph unicode="&#x2dc;" d="M463 1132q19 106 68 158.5t129 52.5q46 -1 113 -24q64 -23 112 -23h4q36 0 58 20t36 66h54q-20 -103 -68.5 -154t-126.5 -51h-4q-50 0 -113 23q-66 24 -114 24q-39 0 -60.5 -20.5t-33.5 -71.5h-54z" />
<glyph unicode="&#x2000;" horiz-adv-x="922" />
<glyph unicode="&#x2001;" horiz-adv-x="1844" />
<glyph unicode="&#x2002;" horiz-adv-x="922" />
<glyph unicode="&#x2003;" horiz-adv-x="1844" />
<glyph unicode="&#x2004;" horiz-adv-x="614" />
<glyph unicode="&#x2005;" horiz-adv-x="461" />
<glyph unicode="&#x2006;" horiz-adv-x="307" />
<glyph unicode="&#x2007;" horiz-adv-x="307" />
<glyph unicode="&#x2008;" horiz-adv-x="230" />
<glyph unicode="&#x2009;" horiz-adv-x="368" />
<glyph unicode="&#x200a;" horiz-adv-x="102" />
<glyph unicode="&#x2010;" horiz-adv-x="656" d="M126 437v83q0 29 41 29h356q41 0 41 -29v-83q0 -28 -40 -28h-358q-40 0 -40 28z" />
<glyph unicode="&#x2011;" horiz-adv-x="656" d="M126 437v83q0 29 41 29h356q41 0 41 -29v-83q0 -28 -40 -28h-358q-40 0 -40 28z" />
<glyph unicode="&#x2012;" horiz-adv-x="656" d="M126 437v83q0 29 41 29h356q41 0 41 -29v-83q0 -28 -40 -28h-358q-40 0 -40 28z" />
<glyph unicode="&#x2013;" d="M252 419v120h996v-120h-996z" />
<glyph unicode="&#x2014;" d="M-274 419v120h2048v-120h-2048z" />
<glyph unicode="&#x2018;" d="M624 1233q0 109 71 226.5t139 117.5v-43q-73 -43 -87 -190q0 -119 129 -161v-42l-119 -125q-44 0 -88.5 65.5t-44.5 151.5z" />
<glyph unicode="&#x2019;" d="M624 1410v42l119 125q44 0 88.5 -65.5t44.5 -151.5q0 -109 -71 -226.5t-139 -117.5v43q73 43 87 190q0 119 -129 161z" />
<glyph unicode="&#x201a;" d="M624 114v42l119 125q44 0 88.5 -65.5t44.5 -151.5q0 -109 -71 -226.5t-139 -117.5v43q73 43 87 190q0 119 -129 161z" />
<glyph unicode="&#x201c;" d="M737 1044q0 109 71 226.5t139 117.5q-73 -86 -87 -233q0 -119 129 -161l23 -74q-38 -86 -112 -89.5t-118.5 62t-44.5 151.5zM1069 1049q0 109 71 226.5t139 117.5q-73 -86 -87 -233q0 -119 129 -161l23 -74q-38 -86 -112 -89.5t-118.5 62t-44.5 151.5z" />
<glyph unicode="&#x201d;" d="M80 1231q38 86 112 89.5t118.5 -62t44.5 -151.5q0 -109 -71 -226.5t-139 -117.5q73 86 87 233q0 119 -129 161zM412 1236q38 86 112 89.5t118.5 -61.5t44.5 -151q0 -109 -71 -227t-139 -118q73 86 87 233q0 119 -129 161z" />
<glyph unicode="&#x201e;" d="M447 114v42l119 125q44 0 88.5 -65.5t44.5 -151.5q0 -109 -71 -226.5t-139 -117.5v43q73 43 87 190q0 119 -129 161zM800 114v42l119 125q44 0 88.5 -65.5t44.5 -151.5q0 -109 -71 -226.5t-139 -117.5v43q73 43 87 190q0 119 -129 161z" />
<glyph unicode="&#x2022;" d="M454 718q0 123 87 209t210 86q122 0 208.5 -86.5t86.5 -208.5t-87.5 -209.5t-209.5 -87.5q-123 0 -209 87t-86 210z" />
<glyph unicode="&#x2026;" horiz-adv-x="2000" d="M313 213q0 13 14 26l69 72q13 12 25 12q11 0 26 -14l68 -73q11 -14 11 -25q0 -12 -12 -26l-68 -75q-17 -17 -25 -17q-14 0 -25 12l-74 86q-9 11 -9 22zM894 213q0 13 13 26l70 72q13 12 25 12q11 0 26 -14l68 -73q10 -14 10 -25q0 -12 -12 -26l-68 -75q-17 -17 -24 -17 q-14 0 -25 12l-75 86q-8 11 -8 22zM1474 213q0 13 14 26l69 72q13 12 25 12q11 0 26 -14l68 -73q11 -14 11 -25q0 -12 -12 -26l-68 -75q-17 -17 -25 -17q-14 0 -25 12l-74 86q-9 11 -9 22z" />
<glyph unicode="&#x202f;" horiz-adv-x="368" />
<glyph unicode="&#x2039;" d="M572 479l342 303h14v-37l-205 -266l205 -266v-37h-14z" />
<glyph unicode="&#x203a;" d="M572 176v37l205 266l-205 266v37h14l342 -303l-342 -303h-14z" />
<glyph unicode="&#x205f;" horiz-adv-x="461" />
<glyph unicode="&#x20ac;" horiz-adv-x="1335" d="M105 653l17 60h87v29q0 16 1 31h-71l17 60h58q14 145 76 281q81 178 226 274t298 96q43 0 87 -8q40 -10 82 -29q8 -6 16 -6q20 0 34 45h41l84 -281l-40 -1q-49 134 -138 178q-43 22 -81 32v3q-50 16 -101 16q-17 0 -34 -2q-120 -12 -226 -113.5t-157 -273.5 q-32 -104 -39 -211h706l-17 -60h-692q0 -30 2 -60h674l-17 -60h-652q17 -158 83 -298q74 -157 193 -236q102 -68 216 -69q186 3 256 91q74 91 74 185h48v-143q0 -70 -111 -127q-105 -54 -267 -56q-181 0 -325.5 98t-223.5 274q-62 135 -76 281h-108z" />
<glyph unicode="&#x2122;" horiz-adv-x="905" d="M-1.5 1309q-0.5 1 0 2.5t1 3.5l0.5 2q5 8 12 15q11 13 24 23q6 5 12 7q27 9 55 14q14 2 27 3q4 1 9 1q15 2 31 3q2 0 3 1q40 3 80 3h2h15q77 1 154 -6q1 0 0.5 -2t-2 -5t-3 -5.5t-2.5 -3.5q-7 -9 -16 -18q-8 -8 -18 -15q-5 -5 -13 -8q-36 0 -71 2q-7 -22 -13 -45 q-6 -26 -11 -53q-1 -4 -1 -8q-3 -13 -4 -26q-1 -10 -3 -19q-3 -26 -5 -52q-2 -38 -4 -77q0 -5 -1 -10q-1 -27 -3 -54q-2 -8 -7 -14l-8 -8q-8 -10 -18 -19q-7 -7 -16 -12q-2 0 -3 -1t-3 -1q-5 -1 -4 3q3 30 7 59q0 5 1 11v0.5v0.5l10 82q3 25 7 50q2 11 3 21q14 89 45 174 l-64 2q-38 1 -76 -1h-8q-15 -1 -30 -3q-5 0 -10 -1q-16 -1 -31 -4q-24 -5 -47 -13q-3 0 -3.5 1zM388 908q8 34 18 69l6 24q6 26 14 51q7 21 13 43q7 21 14 43q22 71 52 138q1 3 3 7q8 21 21 40q10 13 22 25q14 15 33 26q5 5 11 3q2 0 4 -1h1q6 -7 9 -16q12 -49 12 -100v-22 q1 -22 1 -44q1 -33 3 -66q24 59 51 117q16 33 36 63q14 20 31 37q15 16 34 28h1q5 4 12 5h1q4 0 7 -3t4 -6q13 -31 16 -65q1 -2 1 -5q11 -79 17 -158q1 -22 3 -44l2 -30q2 -18 3 -36q2 -17 0 -34q-4 -11 -11 -20l-6 -6q-2 -3 -5 -7q-12 -14 -27 -27l-5.5 -4.5t-12.5 -9 t-12.5 -7t-6.5 -0.5q-5 15 -3 31v2v7v29v11q0 28 -1 56q-2 71 -8 141v-1q0 4 -1 9q-1 14 -3 29q-1 17 -5 33q0 2 -1 5v2q0 -1 -1 -1v-2q-20 -47 -40 -95q-3 -9 -7 -18q-11 -30 -25 -59q-8 -19 -20 -37q-18 -24 -40 -44q-18 -17 -41 -26h-5q-2 1 -4 1q-4 4 -4 10q-4 29 -4 58 v11q-1 23 -1 47v4v14q1 59 -3 118v1q-6 -15 -12 -31q-11 -33 -21 -67l-4 -10q-27 -88 -48 -177q-1 -6 -5.5 -12t-9.5 -11l-2 -2q-10 -12 -21 -22q-9 -8 -19 -14q-2 -1 -3 -1l-4 -2q-5 -1 -4 5z" />
<glyph unicode="&#x25fc;" horiz-adv-x="705" d="M0 0v705h705v-705h-705z" />
<glyph unicode="&#xfb01;" horiz-adv-x="660" d="M-126 564q82 125 142 125h216q28 383 88 433q62 110 158 159q14 8 25 8h17q68 0 79 -100q0 -113 -79 -158q-8 0 -8 8q8 42 8 75q0 63 -83 75q-33 0 -46 -92q-29 -196 -29 -404q-5 0 -5 -4l9 -4q129 -4 204 -4h8q36 0 50 -13q0 -36 -121 -125l-29 -4h-116l-9 4 q0 -272 -71 -537q-78 -205 -195 -267h-13q-8 0 -8 8t54 96q79 229 79 396q8 49 25 313h-75q-74 0 -121 4q-30 -4 -112 -4h-34q-8 0 -8 12zM451 -334q48 210 48 792q3 0 16 120q-24 13 -24 44q0 14 140 84h16q6 0 12 -16q-24 -142 -24 -696q-12 -152 -24 -172q12 0 12 -8v-8 q-129 -148 -168 -148z" />
<glyph unicode="&#xfb02;" horiz-adv-x="732" d="M-164 583q82 125 142 125h216q28 383 88 433q62 110 158 159q14 8 25 8h17q68 0 79 -100q0 -113 -79 -158q-8 0 -8 8q8 42 8 75q0 63 -83 75q-33 0 -46 -92q-29 -196 -29 -404q-5 0 -5 -4l9 -4q129 -4 204 -4h8q36 0 50 -13q0 -36 -121 -125l-29 -4h-116l-9 4 q0 -272 -71 -537q-78 -205 -195 -267h-13q-8 0 -8 8t54 96q79 229 79 396q8 49 25 313h-75q-74 0 -121 4q-30 -4 -112 -4h-34q-8 0 -8 12zM461 848q49 92 137 137q28 3 46 3q46 0 55 -156v-13q0 -163 -88 -854v-46q0 -42 -108 -121q-5 -3 -13 -3q-6 0 -6 7q0 185 65 870v36 q-2 121 -42 137q-23 -3 -36 -3h-3q-7 0 -7 6z" />
</font>
</defs>
</svg>
